%TF.GenerationSoftware,KiCad,Pcbnew,(5.1.6)-1*%
%TF.CreationDate,2020-10-25T22:56:54+03:00*%
%TF.ProjectId,modular-development-board,6d6f6475-6c61-4722-9d64-6576656c6f70,rev?*%
%TF.SameCoordinates,Original*%
%TF.FileFunction,Legend,Bot*%
%TF.FilePolarity,Positive*%
%FSLAX46Y46*%
G04 Gerber Fmt 4.6, Leading zero omitted, Abs format (unit mm)*
G04 Created by KiCad (PCBNEW (5.1.6)-1) date 2020-10-25 22:56:54*
%MOMM*%
%LPD*%
G01*
G04 APERTURE LIST*
%ADD10C,0.275000*%
%ADD11C,0.325000*%
%ADD12C,0.250000*%
%ADD13C,0.120000*%
G04 APERTURE END LIST*
D10*
X82030952Y-47135119D02*
X82030952Y-46035119D01*
X81507142Y-46401785D02*
X81507142Y-47135119D01*
X81507142Y-46506547D02*
X81454761Y-46454166D01*
X81350000Y-46401785D01*
X81192857Y-46401785D01*
X81088095Y-46454166D01*
X81035714Y-46558928D01*
X81035714Y-47135119D01*
X80511904Y-46401785D02*
X80511904Y-47501785D01*
X80511904Y-46454166D02*
X80407142Y-46401785D01*
X80197619Y-46401785D01*
X80092857Y-46454166D01*
X80040476Y-46506547D01*
X79988095Y-46611309D01*
X79988095Y-46925595D01*
X80040476Y-47030357D01*
X80092857Y-47082738D01*
X80197619Y-47135119D01*
X80407142Y-47135119D01*
X80511904Y-47082738D01*
X79045238Y-46401785D02*
X79045238Y-47135119D01*
X79516666Y-46401785D02*
X79516666Y-46977976D01*
X79464285Y-47082738D01*
X79359523Y-47135119D01*
X79202380Y-47135119D01*
X79097619Y-47082738D01*
X79045238Y-47030357D01*
X78678571Y-46401785D02*
X78259523Y-46401785D01*
X78521428Y-46035119D02*
X78521428Y-46977976D01*
X78469047Y-47082738D01*
X78364285Y-47135119D01*
X78259523Y-47135119D01*
X77211904Y-46035119D02*
X76845238Y-47135119D01*
X76478571Y-46035119D01*
X75954761Y-47135119D02*
X76059523Y-47082738D01*
X76111904Y-47030357D01*
X76164285Y-46925595D01*
X76164285Y-46611309D01*
X76111904Y-46506547D01*
X76059523Y-46454166D01*
X75954761Y-46401785D01*
X75797619Y-46401785D01*
X75692857Y-46454166D01*
X75640476Y-46506547D01*
X75588095Y-46611309D01*
X75588095Y-46925595D01*
X75640476Y-47030357D01*
X75692857Y-47082738D01*
X75797619Y-47135119D01*
X75954761Y-47135119D01*
X74959523Y-47135119D02*
X75064285Y-47082738D01*
X75116666Y-46977976D01*
X75116666Y-46035119D01*
X74697619Y-46401785D02*
X74278571Y-46401785D01*
X74540476Y-46035119D02*
X74540476Y-46977976D01*
X74488095Y-47082738D01*
X74383333Y-47135119D01*
X74278571Y-47135119D01*
X73440476Y-47135119D02*
X73440476Y-46558928D01*
X73492857Y-46454166D01*
X73597619Y-46401785D01*
X73807142Y-46401785D01*
X73911904Y-46454166D01*
X73440476Y-47082738D02*
X73545238Y-47135119D01*
X73807142Y-47135119D01*
X73911904Y-47082738D01*
X73964285Y-46977976D01*
X73964285Y-46873214D01*
X73911904Y-46768452D01*
X73807142Y-46716071D01*
X73545238Y-46716071D01*
X73440476Y-46663690D01*
X72445238Y-46401785D02*
X72445238Y-47292261D01*
X72497619Y-47397023D01*
X72550000Y-47449404D01*
X72654761Y-47501785D01*
X72811904Y-47501785D01*
X72916666Y-47449404D01*
X72445238Y-47082738D02*
X72550000Y-47135119D01*
X72759523Y-47135119D01*
X72864285Y-47082738D01*
X72916666Y-47030357D01*
X72969047Y-46925595D01*
X72969047Y-46611309D01*
X72916666Y-46506547D01*
X72864285Y-46454166D01*
X72759523Y-46401785D01*
X72550000Y-46401785D01*
X72445238Y-46454166D01*
X71502380Y-47082738D02*
X71607142Y-47135119D01*
X71816666Y-47135119D01*
X71921428Y-47082738D01*
X71973809Y-46977976D01*
X71973809Y-46558928D01*
X71921428Y-46454166D01*
X71816666Y-46401785D01*
X71607142Y-46401785D01*
X71502380Y-46454166D01*
X71450000Y-46558928D01*
X71450000Y-46663690D01*
X71973809Y-46768452D01*
X70978571Y-47030357D02*
X70926190Y-47082738D01*
X70978571Y-47135119D01*
X71030952Y-47082738D01*
X70978571Y-47030357D01*
X70978571Y-47135119D01*
X70978571Y-46454166D02*
X70926190Y-46506547D01*
X70978571Y-46558928D01*
X71030952Y-46506547D01*
X70978571Y-46454166D01*
X70978571Y-46558928D01*
X69721428Y-46035119D02*
X68988095Y-46035119D01*
X69459523Y-47135119D01*
X68726190Y-46035119D02*
X68359523Y-47135119D01*
X67992857Y-46035119D01*
X66788095Y-46401785D02*
X67626190Y-46716071D01*
X66788095Y-47030357D01*
X66421428Y-46035119D02*
X66054761Y-47135119D01*
X65688095Y-46035119D01*
X65321428Y-47135119D02*
X65321428Y-46035119D01*
X64797619Y-47135119D02*
X64797619Y-46035119D01*
X64169047Y-47135119D01*
X64169047Y-46035119D01*
X62807142Y-46401785D02*
X63645238Y-46716071D01*
X62807142Y-47030357D01*
X61707142Y-47135119D02*
X62335714Y-47135119D01*
X62021428Y-47135119D02*
X62021428Y-46035119D01*
X62126190Y-46192261D01*
X62230952Y-46297023D01*
X62335714Y-46349404D01*
X60764285Y-46035119D02*
X60973809Y-46035119D01*
X61078571Y-46087500D01*
X61130952Y-46139880D01*
X61235714Y-46297023D01*
X61288095Y-46506547D01*
X61288095Y-46925595D01*
X61235714Y-47030357D01*
X61183333Y-47082738D01*
X61078571Y-47135119D01*
X60869047Y-47135119D01*
X60764285Y-47082738D01*
X60711904Y-47030357D01*
X60659523Y-46925595D01*
X60659523Y-46663690D01*
X60711904Y-46558928D01*
X60764285Y-46506547D01*
X60869047Y-46454166D01*
X61078571Y-46454166D01*
X61183333Y-46506547D01*
X61235714Y-46558928D01*
X61288095Y-46663690D01*
X60345238Y-46035119D02*
X59978571Y-47135119D01*
X59611904Y-46035119D01*
X80485714Y-47960119D02*
X80276190Y-47960119D01*
X80171428Y-48012500D01*
X80066666Y-48117261D01*
X80014285Y-48326785D01*
X80014285Y-48693452D01*
X80066666Y-48902976D01*
X80171428Y-49007738D01*
X80276190Y-49060119D01*
X80485714Y-49060119D01*
X80590476Y-49007738D01*
X80695238Y-48902976D01*
X80747619Y-48693452D01*
X80747619Y-48326785D01*
X80695238Y-48117261D01*
X80590476Y-48012500D01*
X80485714Y-47960119D01*
X79071428Y-48326785D02*
X79071428Y-49060119D01*
X79542857Y-48326785D02*
X79542857Y-48902976D01*
X79490476Y-49007738D01*
X79385714Y-49060119D01*
X79228571Y-49060119D01*
X79123809Y-49007738D01*
X79071428Y-48955357D01*
X78704761Y-48326785D02*
X78285714Y-48326785D01*
X78547619Y-47960119D02*
X78547619Y-48902976D01*
X78495238Y-49007738D01*
X78390476Y-49060119D01*
X78285714Y-49060119D01*
X77919047Y-48326785D02*
X77919047Y-49426785D01*
X77919047Y-48379166D02*
X77814285Y-48326785D01*
X77604761Y-48326785D01*
X77500000Y-48379166D01*
X77447619Y-48431547D01*
X77395238Y-48536309D01*
X77395238Y-48850595D01*
X77447619Y-48955357D01*
X77500000Y-49007738D01*
X77604761Y-49060119D01*
X77814285Y-49060119D01*
X77919047Y-49007738D01*
X76452380Y-48326785D02*
X76452380Y-49060119D01*
X76923809Y-48326785D02*
X76923809Y-48902976D01*
X76871428Y-49007738D01*
X76766666Y-49060119D01*
X76609523Y-49060119D01*
X76504761Y-49007738D01*
X76452380Y-48955357D01*
X76085714Y-48326785D02*
X75666666Y-48326785D01*
X75928571Y-47960119D02*
X75928571Y-48902976D01*
X75876190Y-49007738D01*
X75771428Y-49060119D01*
X75666666Y-49060119D01*
X73833333Y-48955357D02*
X73885714Y-49007738D01*
X74042857Y-49060119D01*
X74147619Y-49060119D01*
X74304761Y-49007738D01*
X74409523Y-48902976D01*
X74461904Y-48798214D01*
X74514285Y-48588690D01*
X74514285Y-48431547D01*
X74461904Y-48222023D01*
X74409523Y-48117261D01*
X74304761Y-48012500D01*
X74147619Y-47960119D01*
X74042857Y-47960119D01*
X73885714Y-48012500D01*
X73833333Y-48064880D01*
X72890476Y-48326785D02*
X72890476Y-49060119D01*
X73361904Y-48326785D02*
X73361904Y-48902976D01*
X73309523Y-49007738D01*
X73204761Y-49060119D01*
X73047619Y-49060119D01*
X72942857Y-49007738D01*
X72890476Y-48955357D01*
X72366666Y-49060119D02*
X72366666Y-48326785D01*
X72366666Y-48536309D02*
X72314285Y-48431547D01*
X72261904Y-48379166D01*
X72157142Y-48326785D01*
X72052380Y-48326785D01*
X71685714Y-49060119D02*
X71685714Y-48326785D01*
X71685714Y-48536309D02*
X71633333Y-48431547D01*
X71580952Y-48379166D01*
X71476190Y-48326785D01*
X71371428Y-48326785D01*
X70585714Y-49007738D02*
X70690476Y-49060119D01*
X70900000Y-49060119D01*
X71004761Y-49007738D01*
X71057142Y-48902976D01*
X71057142Y-48483928D01*
X71004761Y-48379166D01*
X70900000Y-48326785D01*
X70690476Y-48326785D01*
X70585714Y-48379166D01*
X70533333Y-48483928D01*
X70533333Y-48588690D01*
X71057142Y-48693452D01*
X70061904Y-48326785D02*
X70061904Y-49060119D01*
X70061904Y-48431547D02*
X70009523Y-48379166D01*
X69904761Y-48326785D01*
X69747619Y-48326785D01*
X69642857Y-48379166D01*
X69590476Y-48483928D01*
X69590476Y-49060119D01*
X69223809Y-48326785D02*
X68804761Y-48326785D01*
X69066666Y-47960119D02*
X69066666Y-48902976D01*
X69014285Y-49007738D01*
X68909523Y-49060119D01*
X68804761Y-49060119D01*
X68438095Y-48955357D02*
X68385714Y-49007738D01*
X68438095Y-49060119D01*
X68490476Y-49007738D01*
X68438095Y-48955357D01*
X68438095Y-49060119D01*
X68438095Y-48379166D02*
X68385714Y-48431547D01*
X68438095Y-48483928D01*
X68490476Y-48431547D01*
X68438095Y-48379166D01*
X68438095Y-48483928D01*
X67076190Y-49060119D02*
X67076190Y-47960119D01*
X66709523Y-48745833D01*
X66342857Y-47960119D01*
X66342857Y-49060119D01*
X65347619Y-49060119D02*
X65347619Y-48483928D01*
X65400000Y-48379166D01*
X65504761Y-48326785D01*
X65714285Y-48326785D01*
X65819047Y-48379166D01*
X65347619Y-49007738D02*
X65452380Y-49060119D01*
X65714285Y-49060119D01*
X65819047Y-49007738D01*
X65871428Y-48902976D01*
X65871428Y-48798214D01*
X65819047Y-48693452D01*
X65714285Y-48641071D01*
X65452380Y-48641071D01*
X65347619Y-48588690D01*
X64928571Y-49060119D02*
X64352380Y-48326785D01*
X64928571Y-48326785D02*
X64352380Y-49060119D01*
X63933333Y-48955357D02*
X63880952Y-49007738D01*
X63933333Y-49060119D01*
X63985714Y-49007738D01*
X63933333Y-48955357D01*
X63933333Y-49060119D01*
X61995238Y-49060119D02*
X62623809Y-49060119D01*
X62309523Y-49060119D02*
X62309523Y-47960119D01*
X62414285Y-48117261D01*
X62519047Y-48222023D01*
X62623809Y-48274404D01*
X61576190Y-48745833D02*
X61052380Y-48745833D01*
X61680952Y-49060119D02*
X61314285Y-47960119D01*
X60947619Y-49060119D01*
D11*
X90657142Y-63821428D02*
X90347619Y-64688095D01*
X90038095Y-63821428D01*
X89295238Y-63388095D02*
X89171428Y-63388095D01*
X89047619Y-63450000D01*
X88985714Y-63511904D01*
X88923809Y-63635714D01*
X88861904Y-63883333D01*
X88861904Y-64192857D01*
X88923809Y-64440476D01*
X88985714Y-64564285D01*
X89047619Y-64626190D01*
X89171428Y-64688095D01*
X89295238Y-64688095D01*
X89419047Y-64626190D01*
X89480952Y-64564285D01*
X89542857Y-64440476D01*
X89604761Y-64192857D01*
X89604761Y-63883333D01*
X89542857Y-63635714D01*
X89480952Y-63511904D01*
X89419047Y-63450000D01*
X89295238Y-63388095D01*
X88304761Y-64564285D02*
X88242857Y-64626190D01*
X88304761Y-64688095D01*
X88366666Y-64626190D01*
X88304761Y-64564285D01*
X88304761Y-64688095D01*
X87004761Y-64688095D02*
X87747619Y-64688095D01*
X87376190Y-64688095D02*
X87376190Y-63388095D01*
X87500000Y-63573809D01*
X87623809Y-63697619D01*
X87747619Y-63759523D01*
X79183333Y-63850595D02*
X79183333Y-62550595D01*
X78750000Y-63479166D01*
X78316666Y-62550595D01*
X78316666Y-63850595D01*
X77511904Y-63850595D02*
X77635714Y-63788690D01*
X77697619Y-63726785D01*
X77759523Y-63602976D01*
X77759523Y-63231547D01*
X77697619Y-63107738D01*
X77635714Y-63045833D01*
X77511904Y-62983928D01*
X77326190Y-62983928D01*
X77202380Y-63045833D01*
X77140476Y-63107738D01*
X77078571Y-63231547D01*
X77078571Y-63602976D01*
X77140476Y-63726785D01*
X77202380Y-63788690D01*
X77326190Y-63850595D01*
X77511904Y-63850595D01*
X75964285Y-63850595D02*
X75964285Y-62550595D01*
X75964285Y-63788690D02*
X76088095Y-63850595D01*
X76335714Y-63850595D01*
X76459523Y-63788690D01*
X76521428Y-63726785D01*
X76583333Y-63602976D01*
X76583333Y-63231547D01*
X76521428Y-63107738D01*
X76459523Y-63045833D01*
X76335714Y-62983928D01*
X76088095Y-62983928D01*
X75964285Y-63045833D01*
X74788095Y-62983928D02*
X74788095Y-63850595D01*
X75345238Y-62983928D02*
X75345238Y-63664880D01*
X75283333Y-63788690D01*
X75159523Y-63850595D01*
X74973809Y-63850595D01*
X74850000Y-63788690D01*
X74788095Y-63726785D01*
X73983333Y-63850595D02*
X74107142Y-63788690D01*
X74169047Y-63664880D01*
X74169047Y-62550595D01*
X72930952Y-63850595D02*
X72930952Y-63169642D01*
X72992857Y-63045833D01*
X73116666Y-62983928D01*
X73364285Y-62983928D01*
X73488095Y-63045833D01*
X72930952Y-63788690D02*
X73054761Y-63850595D01*
X73364285Y-63850595D01*
X73488095Y-63788690D01*
X73550000Y-63664880D01*
X73550000Y-63541071D01*
X73488095Y-63417261D01*
X73364285Y-63355357D01*
X73054761Y-63355357D01*
X72930952Y-63293452D01*
X72311904Y-63850595D02*
X72311904Y-62983928D01*
X72311904Y-63231547D02*
X72250000Y-63107738D01*
X72188095Y-63045833D01*
X72064285Y-62983928D01*
X71940476Y-62983928D01*
X70516666Y-63850595D02*
X70516666Y-62550595D01*
X70207142Y-62550595D01*
X70021428Y-62612500D01*
X69897619Y-62736309D01*
X69835714Y-62860119D01*
X69773809Y-63107738D01*
X69773809Y-63293452D01*
X69835714Y-63541071D01*
X69897619Y-63664880D01*
X70021428Y-63788690D01*
X70207142Y-63850595D01*
X70516666Y-63850595D01*
X68721428Y-63788690D02*
X68845238Y-63850595D01*
X69092857Y-63850595D01*
X69216666Y-63788690D01*
X69278571Y-63664880D01*
X69278571Y-63169642D01*
X69216666Y-63045833D01*
X69092857Y-62983928D01*
X68845238Y-62983928D01*
X68721428Y-63045833D01*
X68659523Y-63169642D01*
X68659523Y-63293452D01*
X69278571Y-63417261D01*
X68226190Y-62983928D02*
X67916666Y-63850595D01*
X67607142Y-62983928D01*
X66616666Y-63788690D02*
X66740476Y-63850595D01*
X66988095Y-63850595D01*
X67111904Y-63788690D01*
X67173809Y-63664880D01*
X67173809Y-63169642D01*
X67111904Y-63045833D01*
X66988095Y-62983928D01*
X66740476Y-62983928D01*
X66616666Y-63045833D01*
X66554761Y-63169642D01*
X66554761Y-63293452D01*
X67173809Y-63417261D01*
X65811904Y-63850595D02*
X65935714Y-63788690D01*
X65997619Y-63664880D01*
X65997619Y-62550595D01*
X65130952Y-63850595D02*
X65254761Y-63788690D01*
X65316666Y-63726785D01*
X65378571Y-63602976D01*
X65378571Y-63231547D01*
X65316666Y-63107738D01*
X65254761Y-63045833D01*
X65130952Y-62983928D01*
X64945238Y-62983928D01*
X64821428Y-63045833D01*
X64759523Y-63107738D01*
X64697619Y-63231547D01*
X64697619Y-63602976D01*
X64759523Y-63726785D01*
X64821428Y-63788690D01*
X64945238Y-63850595D01*
X65130952Y-63850595D01*
X64140476Y-62983928D02*
X64140476Y-64283928D01*
X64140476Y-63045833D02*
X64016666Y-62983928D01*
X63769047Y-62983928D01*
X63645238Y-63045833D01*
X63583333Y-63107738D01*
X63521428Y-63231547D01*
X63521428Y-63602976D01*
X63583333Y-63726785D01*
X63645238Y-63788690D01*
X63769047Y-63850595D01*
X64016666Y-63850595D01*
X64140476Y-63788690D01*
X62964285Y-63850595D02*
X62964285Y-62983928D01*
X62964285Y-63107738D02*
X62902380Y-63045833D01*
X62778571Y-62983928D01*
X62592857Y-62983928D01*
X62469047Y-63045833D01*
X62407142Y-63169642D01*
X62407142Y-63850595D01*
X62407142Y-63169642D02*
X62345238Y-63045833D01*
X62221428Y-62983928D01*
X62035714Y-62983928D01*
X61911904Y-63045833D01*
X61850000Y-63169642D01*
X61850000Y-63850595D01*
X60735714Y-63788690D02*
X60859523Y-63850595D01*
X61107142Y-63850595D01*
X61230952Y-63788690D01*
X61292857Y-63664880D01*
X61292857Y-63169642D01*
X61230952Y-63045833D01*
X61107142Y-62983928D01*
X60859523Y-62983928D01*
X60735714Y-63045833D01*
X60673809Y-63169642D01*
X60673809Y-63293452D01*
X61292857Y-63417261D01*
X60116666Y-62983928D02*
X60116666Y-63850595D01*
X60116666Y-63107738D02*
X60054761Y-63045833D01*
X59930952Y-62983928D01*
X59745238Y-62983928D01*
X59621428Y-63045833D01*
X59559523Y-63169642D01*
X59559523Y-63850595D01*
X59126190Y-62983928D02*
X58630952Y-62983928D01*
X58940476Y-62550595D02*
X58940476Y-63664880D01*
X58878571Y-63788690D01*
X58754761Y-63850595D01*
X58630952Y-63850595D01*
X71073809Y-65444642D02*
X70888095Y-65506547D01*
X70826190Y-65568452D01*
X70764285Y-65692261D01*
X70764285Y-65877976D01*
X70826190Y-66001785D01*
X70888095Y-66063690D01*
X71011904Y-66125595D01*
X71507142Y-66125595D01*
X71507142Y-64825595D01*
X71073809Y-64825595D01*
X70950000Y-64887500D01*
X70888095Y-64949404D01*
X70826190Y-65073214D01*
X70826190Y-65197023D01*
X70888095Y-65320833D01*
X70950000Y-65382738D01*
X71073809Y-65444642D01*
X71507142Y-65444642D01*
X70021428Y-66125595D02*
X70145238Y-66063690D01*
X70207142Y-66001785D01*
X70269047Y-65877976D01*
X70269047Y-65506547D01*
X70207142Y-65382738D01*
X70145238Y-65320833D01*
X70021428Y-65258928D01*
X69835714Y-65258928D01*
X69711904Y-65320833D01*
X69650000Y-65382738D01*
X69588095Y-65506547D01*
X69588095Y-65877976D01*
X69650000Y-66001785D01*
X69711904Y-66063690D01*
X69835714Y-66125595D01*
X70021428Y-66125595D01*
X68473809Y-66125595D02*
X68473809Y-65444642D01*
X68535714Y-65320833D01*
X68659523Y-65258928D01*
X68907142Y-65258928D01*
X69030952Y-65320833D01*
X68473809Y-66063690D02*
X68597619Y-66125595D01*
X68907142Y-66125595D01*
X69030952Y-66063690D01*
X69092857Y-65939880D01*
X69092857Y-65816071D01*
X69030952Y-65692261D01*
X68907142Y-65630357D01*
X68597619Y-65630357D01*
X68473809Y-65568452D01*
X67854761Y-66125595D02*
X67854761Y-65258928D01*
X67854761Y-65506547D02*
X67792857Y-65382738D01*
X67730952Y-65320833D01*
X67607142Y-65258928D01*
X67483333Y-65258928D01*
X66492857Y-66125595D02*
X66492857Y-64825595D01*
X66492857Y-66063690D02*
X66616666Y-66125595D01*
X66864285Y-66125595D01*
X66988095Y-66063690D01*
X67050000Y-66001785D01*
X67111904Y-65877976D01*
X67111904Y-65506547D01*
X67050000Y-65382738D01*
X66988095Y-65320833D01*
X66864285Y-65258928D01*
X66616666Y-65258928D01*
X66492857Y-65320833D01*
X107740476Y-72913095D02*
X107740476Y-73965476D01*
X107678571Y-74089285D01*
X107616666Y-74151190D01*
X107492857Y-74213095D01*
X107245238Y-74213095D01*
X107121428Y-74151190D01*
X107059523Y-74089285D01*
X106997619Y-73965476D01*
X106997619Y-72913095D01*
X106440476Y-73841666D02*
X105821428Y-73841666D01*
X106564285Y-74213095D02*
X106130952Y-72913095D01*
X105697619Y-74213095D01*
X104521428Y-74213095D02*
X104954761Y-73594047D01*
X105264285Y-74213095D02*
X105264285Y-72913095D01*
X104769047Y-72913095D01*
X104645238Y-72975000D01*
X104583333Y-73036904D01*
X104521428Y-73160714D01*
X104521428Y-73346428D01*
X104583333Y-73470238D01*
X104645238Y-73532142D01*
X104769047Y-73594047D01*
X105264285Y-73594047D01*
X104150000Y-72913095D02*
X103407142Y-72913095D01*
X103778571Y-74213095D02*
X103778571Y-72913095D01*
X102169047Y-73346428D02*
X101673809Y-73346428D01*
X101983333Y-72913095D02*
X101983333Y-74027380D01*
X101921428Y-74151190D01*
X101797619Y-74213095D01*
X101673809Y-74213095D01*
X101054761Y-74213095D02*
X101178571Y-74151190D01*
X101240476Y-74089285D01*
X101302380Y-73965476D01*
X101302380Y-73594047D01*
X101240476Y-73470238D01*
X101178571Y-73408333D01*
X101054761Y-73346428D01*
X100869047Y-73346428D01*
X100745238Y-73408333D01*
X100683333Y-73470238D01*
X100621428Y-73594047D01*
X100621428Y-73965476D01*
X100683333Y-74089285D01*
X100745238Y-74151190D01*
X100869047Y-74213095D01*
X101054761Y-74213095D01*
X99259523Y-72913095D02*
X98516666Y-72913095D01*
X98888095Y-74213095D02*
X98888095Y-72913095D01*
X98269047Y-72913095D02*
X97526190Y-72913095D01*
X97897619Y-74213095D02*
X97897619Y-72913095D01*
X96473809Y-74213095D02*
X97092857Y-74213095D01*
X97092857Y-72913095D01*
X105759523Y-76364285D02*
X105821428Y-76426190D01*
X106007142Y-76488095D01*
X106130952Y-76488095D01*
X106316666Y-76426190D01*
X106440476Y-76302380D01*
X106502380Y-76178571D01*
X106564285Y-75930952D01*
X106564285Y-75745238D01*
X106502380Y-75497619D01*
X106440476Y-75373809D01*
X106316666Y-75250000D01*
X106130952Y-75188095D01*
X106007142Y-75188095D01*
X105821428Y-75250000D01*
X105759523Y-75311904D01*
X105016666Y-76488095D02*
X105140476Y-76426190D01*
X105202380Y-76364285D01*
X105264285Y-76240476D01*
X105264285Y-75869047D01*
X105202380Y-75745238D01*
X105140476Y-75683333D01*
X105016666Y-75621428D01*
X104830952Y-75621428D01*
X104707142Y-75683333D01*
X104645238Y-75745238D01*
X104583333Y-75869047D01*
X104583333Y-76240476D01*
X104645238Y-76364285D01*
X104707142Y-76426190D01*
X104830952Y-76488095D01*
X105016666Y-76488095D01*
X104026190Y-75621428D02*
X104026190Y-76488095D01*
X104026190Y-75745238D02*
X103964285Y-75683333D01*
X103840476Y-75621428D01*
X103654761Y-75621428D01*
X103530952Y-75683333D01*
X103469047Y-75807142D01*
X103469047Y-76488095D01*
X102973809Y-75621428D02*
X102664285Y-76488095D01*
X102354761Y-75621428D01*
X101364285Y-76426190D02*
X101488095Y-76488095D01*
X101735714Y-76488095D01*
X101859523Y-76426190D01*
X101921428Y-76302380D01*
X101921428Y-75807142D01*
X101859523Y-75683333D01*
X101735714Y-75621428D01*
X101488095Y-75621428D01*
X101364285Y-75683333D01*
X101302380Y-75807142D01*
X101302380Y-75930952D01*
X101921428Y-76054761D01*
X100745238Y-76488095D02*
X100745238Y-75621428D01*
X100745238Y-75869047D02*
X100683333Y-75745238D01*
X100621428Y-75683333D01*
X100497619Y-75621428D01*
X100373809Y-75621428D01*
X100126190Y-75621428D02*
X99630952Y-75621428D01*
X99940476Y-75188095D02*
X99940476Y-76302380D01*
X99878571Y-76426190D01*
X99754761Y-76488095D01*
X99630952Y-76488095D01*
X98702380Y-76426190D02*
X98826190Y-76488095D01*
X99073809Y-76488095D01*
X99197619Y-76426190D01*
X99259523Y-76302380D01*
X99259523Y-75807142D01*
X99197619Y-75683333D01*
X99073809Y-75621428D01*
X98826190Y-75621428D01*
X98702380Y-75683333D01*
X98640476Y-75807142D01*
X98640476Y-75930952D01*
X99259523Y-76054761D01*
X98083333Y-76488095D02*
X98083333Y-75621428D01*
X98083333Y-75869047D02*
X98021428Y-75745238D01*
X97959523Y-75683333D01*
X97835714Y-75621428D01*
X97711904Y-75621428D01*
X105295238Y-78763095D02*
X105295238Y-77463095D01*
X104861904Y-78391666D01*
X104428571Y-77463095D01*
X104428571Y-78763095D01*
X103623809Y-78763095D02*
X103747619Y-78701190D01*
X103809523Y-78639285D01*
X103871428Y-78515476D01*
X103871428Y-78144047D01*
X103809523Y-78020238D01*
X103747619Y-77958333D01*
X103623809Y-77896428D01*
X103438095Y-77896428D01*
X103314285Y-77958333D01*
X103252380Y-78020238D01*
X103190476Y-78144047D01*
X103190476Y-78515476D01*
X103252380Y-78639285D01*
X103314285Y-78701190D01*
X103438095Y-78763095D01*
X103623809Y-78763095D01*
X102076190Y-78763095D02*
X102076190Y-77463095D01*
X102076190Y-78701190D02*
X102200000Y-78763095D01*
X102447619Y-78763095D01*
X102571428Y-78701190D01*
X102633333Y-78639285D01*
X102695238Y-78515476D01*
X102695238Y-78144047D01*
X102633333Y-78020238D01*
X102571428Y-77958333D01*
X102447619Y-77896428D01*
X102200000Y-77896428D01*
X102076190Y-77958333D01*
X100900000Y-77896428D02*
X100900000Y-78763095D01*
X101457142Y-77896428D02*
X101457142Y-78577380D01*
X101395238Y-78701190D01*
X101271428Y-78763095D01*
X101085714Y-78763095D01*
X100961904Y-78701190D01*
X100900000Y-78639285D01*
X100095238Y-78763095D02*
X100219047Y-78701190D01*
X100280952Y-78577380D01*
X100280952Y-77463095D01*
X99104761Y-78701190D02*
X99228571Y-78763095D01*
X99476190Y-78763095D01*
X99600000Y-78701190D01*
X99661904Y-78577380D01*
X99661904Y-78082142D01*
X99600000Y-77958333D01*
X99476190Y-77896428D01*
X99228571Y-77896428D01*
X99104761Y-77958333D01*
X99042857Y-78082142D01*
X99042857Y-78205952D01*
X99661904Y-78329761D01*
X77169047Y-43488095D02*
X77169047Y-42188095D01*
X76673809Y-42188095D01*
X76550000Y-42250000D01*
X76488095Y-42311904D01*
X76426190Y-42435714D01*
X76426190Y-42621428D01*
X76488095Y-42745238D01*
X76550000Y-42807142D01*
X76673809Y-42869047D01*
X77169047Y-42869047D01*
X75683333Y-43488095D02*
X75807142Y-43426190D01*
X75869047Y-43364285D01*
X75930952Y-43240476D01*
X75930952Y-42869047D01*
X75869047Y-42745238D01*
X75807142Y-42683333D01*
X75683333Y-42621428D01*
X75497619Y-42621428D01*
X75373809Y-42683333D01*
X75311904Y-42745238D01*
X75250000Y-42869047D01*
X75250000Y-43240476D01*
X75311904Y-43364285D01*
X75373809Y-43426190D01*
X75497619Y-43488095D01*
X75683333Y-43488095D01*
X74816666Y-42621428D02*
X74569047Y-43488095D01*
X74321428Y-42869047D01*
X74073809Y-43488095D01*
X73826190Y-42621428D01*
X72835714Y-43426190D02*
X72959523Y-43488095D01*
X73207142Y-43488095D01*
X73330952Y-43426190D01*
X73392857Y-43302380D01*
X73392857Y-42807142D01*
X73330952Y-42683333D01*
X73207142Y-42621428D01*
X72959523Y-42621428D01*
X72835714Y-42683333D01*
X72773809Y-42807142D01*
X72773809Y-42930952D01*
X73392857Y-43054761D01*
X72216666Y-43488095D02*
X72216666Y-42621428D01*
X72216666Y-42869047D02*
X72154761Y-42745238D01*
X72092857Y-42683333D01*
X71969047Y-42621428D01*
X71845238Y-42621428D01*
X70421428Y-43488095D02*
X70421428Y-42188095D01*
X69988095Y-43116666D01*
X69554761Y-42188095D01*
X69554761Y-43488095D01*
X68750000Y-43488095D02*
X68873809Y-43426190D01*
X68935714Y-43364285D01*
X68997619Y-43240476D01*
X68997619Y-42869047D01*
X68935714Y-42745238D01*
X68873809Y-42683333D01*
X68750000Y-42621428D01*
X68564285Y-42621428D01*
X68440476Y-42683333D01*
X68378571Y-42745238D01*
X68316666Y-42869047D01*
X68316666Y-43240476D01*
X68378571Y-43364285D01*
X68440476Y-43426190D01*
X68564285Y-43488095D01*
X68750000Y-43488095D01*
X67202380Y-43488095D02*
X67202380Y-42188095D01*
X67202380Y-43426190D02*
X67326190Y-43488095D01*
X67573809Y-43488095D01*
X67697619Y-43426190D01*
X67759523Y-43364285D01*
X67821428Y-43240476D01*
X67821428Y-42869047D01*
X67759523Y-42745238D01*
X67697619Y-42683333D01*
X67573809Y-42621428D01*
X67326190Y-42621428D01*
X67202380Y-42683333D01*
X66026190Y-42621428D02*
X66026190Y-43488095D01*
X66583333Y-42621428D02*
X66583333Y-43302380D01*
X66521428Y-43426190D01*
X66397619Y-43488095D01*
X66211904Y-43488095D01*
X66088095Y-43426190D01*
X66026190Y-43364285D01*
X65221428Y-43488095D02*
X65345238Y-43426190D01*
X65407142Y-43302380D01*
X65407142Y-42188095D01*
X64230952Y-43426190D02*
X64354761Y-43488095D01*
X64602380Y-43488095D01*
X64726190Y-43426190D01*
X64788095Y-43302380D01*
X64788095Y-42807142D01*
X64726190Y-42683333D01*
X64602380Y-42621428D01*
X64354761Y-42621428D01*
X64230952Y-42683333D01*
X64169047Y-42807142D01*
X64169047Y-42930952D01*
X64788095Y-43054761D01*
X45754761Y-57075595D02*
X45011904Y-57075595D01*
X45383333Y-58375595D02*
X45383333Y-57075595D01*
X44083333Y-58313690D02*
X44207142Y-58375595D01*
X44454761Y-58375595D01*
X44578571Y-58313690D01*
X44640476Y-58189880D01*
X44640476Y-57694642D01*
X44578571Y-57570833D01*
X44454761Y-57508928D01*
X44207142Y-57508928D01*
X44083333Y-57570833D01*
X44021428Y-57694642D01*
X44021428Y-57818452D01*
X44640476Y-57942261D01*
X43464285Y-58375595D02*
X43464285Y-57508928D01*
X43464285Y-57632738D02*
X43402380Y-57570833D01*
X43278571Y-57508928D01*
X43092857Y-57508928D01*
X42969047Y-57570833D01*
X42907142Y-57694642D01*
X42907142Y-58375595D01*
X42907142Y-57694642D02*
X42845238Y-57570833D01*
X42721428Y-57508928D01*
X42535714Y-57508928D01*
X42411904Y-57570833D01*
X42350000Y-57694642D01*
X42350000Y-58375595D01*
X41730952Y-57508928D02*
X41730952Y-58808928D01*
X41730952Y-57570833D02*
X41607142Y-57508928D01*
X41359523Y-57508928D01*
X41235714Y-57570833D01*
X41173809Y-57632738D01*
X41111904Y-57756547D01*
X41111904Y-58127976D01*
X41173809Y-58251785D01*
X41235714Y-58313690D01*
X41359523Y-58375595D01*
X41607142Y-58375595D01*
X41730952Y-58313690D01*
X40059523Y-58313690D02*
X40183333Y-58375595D01*
X40430952Y-58375595D01*
X40554761Y-58313690D01*
X40616666Y-58189880D01*
X40616666Y-57694642D01*
X40554761Y-57570833D01*
X40430952Y-57508928D01*
X40183333Y-57508928D01*
X40059523Y-57570833D01*
X39997619Y-57694642D01*
X39997619Y-57818452D01*
X40616666Y-57942261D01*
X39440476Y-58375595D02*
X39440476Y-57508928D01*
X39440476Y-57756547D02*
X39378571Y-57632738D01*
X39316666Y-57570833D01*
X39192857Y-57508928D01*
X39069047Y-57508928D01*
X38078571Y-58375595D02*
X38078571Y-57694642D01*
X38140476Y-57570833D01*
X38264285Y-57508928D01*
X38511904Y-57508928D01*
X38635714Y-57570833D01*
X38078571Y-58313690D02*
X38202380Y-58375595D01*
X38511904Y-58375595D01*
X38635714Y-58313690D01*
X38697619Y-58189880D01*
X38697619Y-58066071D01*
X38635714Y-57942261D01*
X38511904Y-57880357D01*
X38202380Y-57880357D01*
X38078571Y-57818452D01*
X37645238Y-57508928D02*
X37150000Y-57508928D01*
X37459523Y-57075595D02*
X37459523Y-58189880D01*
X37397619Y-58313690D01*
X37273809Y-58375595D01*
X37150000Y-58375595D01*
X36159523Y-57508928D02*
X36159523Y-58375595D01*
X36716666Y-57508928D02*
X36716666Y-58189880D01*
X36654761Y-58313690D01*
X36530952Y-58375595D01*
X36345238Y-58375595D01*
X36221428Y-58313690D01*
X36159523Y-58251785D01*
X35540476Y-58375595D02*
X35540476Y-57508928D01*
X35540476Y-57756547D02*
X35478571Y-57632738D01*
X35416666Y-57570833D01*
X35292857Y-57508928D01*
X35169047Y-57508928D01*
X34240476Y-58313690D02*
X34364285Y-58375595D01*
X34611904Y-58375595D01*
X34735714Y-58313690D01*
X34797619Y-58189880D01*
X34797619Y-57694642D01*
X34735714Y-57570833D01*
X34611904Y-57508928D01*
X34364285Y-57508928D01*
X34240476Y-57570833D01*
X34178571Y-57694642D01*
X34178571Y-57818452D01*
X34797619Y-57942261D01*
X33621428Y-57880357D02*
X32630952Y-57880357D01*
X43000000Y-60650595D02*
X43000000Y-59350595D01*
X43000000Y-59969642D02*
X42257142Y-59969642D01*
X42257142Y-60650595D02*
X42257142Y-59350595D01*
X41080952Y-59783928D02*
X41080952Y-60650595D01*
X41638095Y-59783928D02*
X41638095Y-60464880D01*
X41576190Y-60588690D01*
X41452380Y-60650595D01*
X41266666Y-60650595D01*
X41142857Y-60588690D01*
X41080952Y-60526785D01*
X40461904Y-60650595D02*
X40461904Y-59783928D01*
X40461904Y-59907738D02*
X40400000Y-59845833D01*
X40276190Y-59783928D01*
X40090476Y-59783928D01*
X39966666Y-59845833D01*
X39904761Y-59969642D01*
X39904761Y-60650595D01*
X39904761Y-59969642D02*
X39842857Y-59845833D01*
X39719047Y-59783928D01*
X39533333Y-59783928D01*
X39409523Y-59845833D01*
X39347619Y-59969642D01*
X39347619Y-60650595D01*
X38728571Y-60650595D02*
X38728571Y-59783928D01*
X38728571Y-59350595D02*
X38790476Y-59412500D01*
X38728571Y-59474404D01*
X38666666Y-59412500D01*
X38728571Y-59350595D01*
X38728571Y-59474404D01*
X37552380Y-60650595D02*
X37552380Y-59350595D01*
X37552380Y-60588690D02*
X37676190Y-60650595D01*
X37923809Y-60650595D01*
X38047619Y-60588690D01*
X38109523Y-60526785D01*
X38171428Y-60402976D01*
X38171428Y-60031547D01*
X38109523Y-59907738D01*
X38047619Y-59845833D01*
X37923809Y-59783928D01*
X37676190Y-59783928D01*
X37552380Y-59845833D01*
X36933333Y-60650595D02*
X36933333Y-59783928D01*
X36933333Y-59350595D02*
X36995238Y-59412500D01*
X36933333Y-59474404D01*
X36871428Y-59412500D01*
X36933333Y-59350595D01*
X36933333Y-59474404D01*
X36500000Y-59783928D02*
X36004761Y-59783928D01*
X36314285Y-59350595D02*
X36314285Y-60464880D01*
X36252380Y-60588690D01*
X36128571Y-60650595D01*
X36004761Y-60650595D01*
X35695238Y-59783928D02*
X35385714Y-60650595D01*
X35076190Y-59783928D02*
X35385714Y-60650595D01*
X35509523Y-60960119D01*
X35571428Y-61022023D01*
X35695238Y-61083928D01*
X44392857Y-62863690D02*
X44207142Y-62925595D01*
X43897619Y-62925595D01*
X43773809Y-62863690D01*
X43711904Y-62801785D01*
X43650000Y-62677976D01*
X43650000Y-62554166D01*
X43711904Y-62430357D01*
X43773809Y-62368452D01*
X43897619Y-62306547D01*
X44145238Y-62244642D01*
X44269047Y-62182738D01*
X44330952Y-62120833D01*
X44392857Y-61997023D01*
X44392857Y-61873214D01*
X44330952Y-61749404D01*
X44269047Y-61687500D01*
X44145238Y-61625595D01*
X43835714Y-61625595D01*
X43650000Y-61687500D01*
X42597619Y-62863690D02*
X42721428Y-62925595D01*
X42969047Y-62925595D01*
X43092857Y-62863690D01*
X43154761Y-62739880D01*
X43154761Y-62244642D01*
X43092857Y-62120833D01*
X42969047Y-62058928D01*
X42721428Y-62058928D01*
X42597619Y-62120833D01*
X42535714Y-62244642D01*
X42535714Y-62368452D01*
X43154761Y-62492261D01*
X41978571Y-62058928D02*
X41978571Y-62925595D01*
X41978571Y-62182738D02*
X41916666Y-62120833D01*
X41792857Y-62058928D01*
X41607142Y-62058928D01*
X41483333Y-62120833D01*
X41421428Y-62244642D01*
X41421428Y-62925595D01*
X40864285Y-62863690D02*
X40740476Y-62925595D01*
X40492857Y-62925595D01*
X40369047Y-62863690D01*
X40307142Y-62739880D01*
X40307142Y-62677976D01*
X40369047Y-62554166D01*
X40492857Y-62492261D01*
X40678571Y-62492261D01*
X40802380Y-62430357D01*
X40864285Y-62306547D01*
X40864285Y-62244642D01*
X40802380Y-62120833D01*
X40678571Y-62058928D01*
X40492857Y-62058928D01*
X40369047Y-62120833D01*
X39564285Y-62925595D02*
X39688095Y-62863690D01*
X39749999Y-62801785D01*
X39811904Y-62677976D01*
X39811904Y-62306547D01*
X39749999Y-62182738D01*
X39688095Y-62120833D01*
X39564285Y-62058928D01*
X39378571Y-62058928D01*
X39254761Y-62120833D01*
X39192857Y-62182738D01*
X39130952Y-62306547D01*
X39130952Y-62677976D01*
X39192857Y-62801785D01*
X39254761Y-62863690D01*
X39378571Y-62925595D01*
X39564285Y-62925595D01*
X38573809Y-62925595D02*
X38573809Y-62058928D01*
X38573809Y-62306547D02*
X38511904Y-62182738D01*
X38450000Y-62120833D01*
X38326190Y-62058928D01*
X38202380Y-62058928D01*
X36221428Y-62925595D02*
X36221428Y-62244642D01*
X36283333Y-62120833D01*
X36407142Y-62058928D01*
X36654761Y-62058928D01*
X36778571Y-62120833D01*
X36221428Y-62863690D02*
X36345238Y-62925595D01*
X36654761Y-62925595D01*
X36778571Y-62863690D01*
X36840476Y-62739880D01*
X36840476Y-62616071D01*
X36778571Y-62492261D01*
X36654761Y-62430357D01*
X36345238Y-62430357D01*
X36221428Y-62368452D01*
X35602380Y-62058928D02*
X35602380Y-62925595D01*
X35602380Y-62182738D02*
X35540476Y-62120833D01*
X35416666Y-62058928D01*
X35230952Y-62058928D01*
X35107142Y-62120833D01*
X35045238Y-62244642D01*
X35045238Y-62925595D01*
X33869047Y-62925595D02*
X33869047Y-61625595D01*
X33869047Y-62863690D02*
X33992857Y-62925595D01*
X34240476Y-62925595D01*
X34364285Y-62863690D01*
X34426190Y-62801785D01*
X34488095Y-62677976D01*
X34488095Y-62306547D01*
X34426190Y-62182738D01*
X34364285Y-62120833D01*
X34240476Y-62058928D01*
X33992857Y-62058928D01*
X33869047Y-62120833D01*
X43835714Y-65200595D02*
X44454761Y-65200595D01*
X44454761Y-63900595D01*
X43402380Y-64519642D02*
X42969047Y-64519642D01*
X42783333Y-65200595D02*
X43402380Y-65200595D01*
X43402380Y-63900595D01*
X42783333Y-63900595D01*
X42226190Y-65200595D02*
X42226190Y-63900595D01*
X41916666Y-63900595D01*
X41730952Y-63962500D01*
X41607142Y-64086309D01*
X41545238Y-64210119D01*
X41483333Y-64457738D01*
X41483333Y-64643452D01*
X41545238Y-64891071D01*
X41607142Y-65014880D01*
X41730952Y-65138690D01*
X41916666Y-65200595D01*
X42226190Y-65200595D01*
X39935714Y-65200595D02*
X39935714Y-63900595D01*
X39502380Y-64829166D01*
X39069047Y-63900595D01*
X39069047Y-65200595D01*
X38264285Y-65200595D02*
X38388095Y-65138690D01*
X38450000Y-65076785D01*
X38511904Y-64952976D01*
X38511904Y-64581547D01*
X38450000Y-64457738D01*
X38388095Y-64395833D01*
X38264285Y-64333928D01*
X38078571Y-64333928D01*
X37954761Y-64395833D01*
X37892857Y-64457738D01*
X37830952Y-64581547D01*
X37830952Y-64952976D01*
X37892857Y-65076785D01*
X37954761Y-65138690D01*
X38078571Y-65200595D01*
X38264285Y-65200595D01*
X36716666Y-65200595D02*
X36716666Y-63900595D01*
X36716666Y-65138690D02*
X36840476Y-65200595D01*
X37088095Y-65200595D01*
X37211904Y-65138690D01*
X37273809Y-65076785D01*
X37335714Y-64952976D01*
X37335714Y-64581547D01*
X37273809Y-64457738D01*
X37211904Y-64395833D01*
X37088095Y-64333928D01*
X36840476Y-64333928D01*
X36716666Y-64395833D01*
X35540476Y-64333928D02*
X35540476Y-65200595D01*
X36097619Y-64333928D02*
X36097619Y-65014880D01*
X36035714Y-65138690D01*
X35911904Y-65200595D01*
X35726190Y-65200595D01*
X35602380Y-65138690D01*
X35540476Y-65076785D01*
X34735714Y-65200595D02*
X34859523Y-65138690D01*
X34921428Y-65014880D01*
X34921428Y-63900595D01*
X33745238Y-65138690D02*
X33869047Y-65200595D01*
X34116666Y-65200595D01*
X34240476Y-65138690D01*
X34302380Y-65014880D01*
X34302380Y-64519642D01*
X34240476Y-64395833D01*
X34116666Y-64333928D01*
X33869047Y-64333928D01*
X33745238Y-64395833D01*
X33683333Y-64519642D01*
X33683333Y-64643452D01*
X34302380Y-64767261D01*
X73521428Y-111469642D02*
X73335714Y-111531547D01*
X73273809Y-111593452D01*
X73211904Y-111717261D01*
X73211904Y-111902976D01*
X73273809Y-112026785D01*
X73335714Y-112088690D01*
X73459523Y-112150595D01*
X73954761Y-112150595D01*
X73954761Y-110850595D01*
X73521428Y-110850595D01*
X73397619Y-110912500D01*
X73335714Y-110974404D01*
X73273809Y-111098214D01*
X73273809Y-111222023D01*
X73335714Y-111345833D01*
X73397619Y-111407738D01*
X73521428Y-111469642D01*
X73954761Y-111469642D01*
X72097619Y-111283928D02*
X72097619Y-112150595D01*
X72654761Y-111283928D02*
X72654761Y-111964880D01*
X72592857Y-112088690D01*
X72469047Y-112150595D01*
X72283333Y-112150595D01*
X72159523Y-112088690D01*
X72097619Y-112026785D01*
X71602380Y-111283928D02*
X70921428Y-111283928D01*
X71602380Y-112150595D01*
X70921428Y-112150595D01*
X70550000Y-111283928D02*
X69869047Y-111283928D01*
X70550000Y-112150595D01*
X69869047Y-112150595D01*
X68878571Y-112088690D02*
X69002380Y-112150595D01*
X69250000Y-112150595D01*
X69373809Y-112088690D01*
X69435714Y-111964880D01*
X69435714Y-111469642D01*
X69373809Y-111345833D01*
X69250000Y-111283928D01*
X69002380Y-111283928D01*
X68878571Y-111345833D01*
X68816666Y-111469642D01*
X68816666Y-111593452D01*
X69435714Y-111717261D01*
X68259523Y-112150595D02*
X68259523Y-111283928D01*
X68259523Y-111531547D02*
X68197619Y-111407738D01*
X68135714Y-111345833D01*
X68011904Y-111283928D01*
X67888095Y-111283928D01*
X65907142Y-112150595D02*
X65907142Y-111469642D01*
X65969047Y-111345833D01*
X66092857Y-111283928D01*
X66340476Y-111283928D01*
X66464285Y-111345833D01*
X65907142Y-112088690D02*
X66030952Y-112150595D01*
X66340476Y-112150595D01*
X66464285Y-112088690D01*
X66526190Y-111964880D01*
X66526190Y-111841071D01*
X66464285Y-111717261D01*
X66340476Y-111655357D01*
X66030952Y-111655357D01*
X65907142Y-111593452D01*
X65288095Y-111283928D02*
X65288095Y-112150595D01*
X65288095Y-111407738D02*
X65226190Y-111345833D01*
X65102380Y-111283928D01*
X64916666Y-111283928D01*
X64792857Y-111345833D01*
X64730952Y-111469642D01*
X64730952Y-112150595D01*
X63554761Y-112150595D02*
X63554761Y-110850595D01*
X63554761Y-112088690D02*
X63678571Y-112150595D01*
X63926190Y-112150595D01*
X64050000Y-112088690D01*
X64111904Y-112026785D01*
X64173809Y-111902976D01*
X64173809Y-111531547D01*
X64111904Y-111407738D01*
X64050000Y-111345833D01*
X63926190Y-111283928D01*
X63678571Y-111283928D01*
X63554761Y-111345833D01*
X61326190Y-112150595D02*
X61945238Y-112150595D01*
X61945238Y-110850595D01*
X60892857Y-112150595D02*
X60892857Y-111283928D01*
X60892857Y-110850595D02*
X60954761Y-110912500D01*
X60892857Y-110974404D01*
X60830952Y-110912500D01*
X60892857Y-110850595D01*
X60892857Y-110974404D01*
X59716666Y-111283928D02*
X59716666Y-112336309D01*
X59778571Y-112460119D01*
X59840476Y-112522023D01*
X59964285Y-112583928D01*
X60150000Y-112583928D01*
X60273809Y-112522023D01*
X59716666Y-112088690D02*
X59840476Y-112150595D01*
X60088095Y-112150595D01*
X60211904Y-112088690D01*
X60273809Y-112026785D01*
X60335714Y-111902976D01*
X60335714Y-111531547D01*
X60273809Y-111407738D01*
X60211904Y-111345833D01*
X60088095Y-111283928D01*
X59840476Y-111283928D01*
X59716666Y-111345833D01*
X59097619Y-112150595D02*
X59097619Y-110850595D01*
X58540476Y-112150595D02*
X58540476Y-111469642D01*
X58602380Y-111345833D01*
X58726190Y-111283928D01*
X58911904Y-111283928D01*
X59035714Y-111345833D01*
X59097619Y-111407738D01*
X58107142Y-111283928D02*
X57611904Y-111283928D01*
X57921428Y-110850595D02*
X57921428Y-111964880D01*
X57859523Y-112088690D01*
X57735714Y-112150595D01*
X57611904Y-112150595D01*
X56250000Y-112088690D02*
X56064285Y-112150595D01*
X55754761Y-112150595D01*
X55630952Y-112088690D01*
X55569047Y-112026785D01*
X55507142Y-111902976D01*
X55507142Y-111779166D01*
X55569047Y-111655357D01*
X55630952Y-111593452D01*
X55754761Y-111531547D01*
X56002380Y-111469642D01*
X56126190Y-111407738D01*
X56188095Y-111345833D01*
X56250000Y-111222023D01*
X56250000Y-111098214D01*
X56188095Y-110974404D01*
X56126190Y-110912500D01*
X56002380Y-110850595D01*
X55692857Y-110850595D01*
X55507142Y-110912500D01*
X54454761Y-112088690D02*
X54578571Y-112150595D01*
X54826190Y-112150595D01*
X54950000Y-112088690D01*
X55011904Y-111964880D01*
X55011904Y-111469642D01*
X54950000Y-111345833D01*
X54826190Y-111283928D01*
X54578571Y-111283928D01*
X54454761Y-111345833D01*
X54392857Y-111469642D01*
X54392857Y-111593452D01*
X55011904Y-111717261D01*
X53835714Y-111283928D02*
X53835714Y-112150595D01*
X53835714Y-111407738D02*
X53773809Y-111345833D01*
X53650000Y-111283928D01*
X53464285Y-111283928D01*
X53340476Y-111345833D01*
X53278571Y-111469642D01*
X53278571Y-112150595D01*
X52721428Y-112088690D02*
X52597619Y-112150595D01*
X52350000Y-112150595D01*
X52226190Y-112088690D01*
X52164285Y-111964880D01*
X52164285Y-111902976D01*
X52226190Y-111779166D01*
X52350000Y-111717261D01*
X52535714Y-111717261D01*
X52659523Y-111655357D01*
X52721428Y-111531547D01*
X52721428Y-111469642D01*
X52659523Y-111345833D01*
X52535714Y-111283928D01*
X52350000Y-111283928D01*
X52226190Y-111345833D01*
X51421428Y-112150595D02*
X51545238Y-112088690D01*
X51607142Y-112026785D01*
X51669047Y-111902976D01*
X51669047Y-111531547D01*
X51607142Y-111407738D01*
X51545238Y-111345833D01*
X51421428Y-111283928D01*
X51235714Y-111283928D01*
X51111904Y-111345833D01*
X51050000Y-111407738D01*
X50988095Y-111531547D01*
X50988095Y-111902976D01*
X51050000Y-112026785D01*
X51111904Y-112088690D01*
X51235714Y-112150595D01*
X51421428Y-112150595D01*
X50430952Y-112150595D02*
X50430952Y-111283928D01*
X50430952Y-111531547D02*
X50369047Y-111407738D01*
X50307142Y-111345833D01*
X50183333Y-111283928D01*
X50059523Y-111283928D01*
X65195238Y-114425595D02*
X65195238Y-113125595D01*
X64761904Y-114054166D01*
X64328571Y-113125595D01*
X64328571Y-114425595D01*
X63523809Y-114425595D02*
X63647619Y-114363690D01*
X63709523Y-114301785D01*
X63771428Y-114177976D01*
X63771428Y-113806547D01*
X63709523Y-113682738D01*
X63647619Y-113620833D01*
X63523809Y-113558928D01*
X63338095Y-113558928D01*
X63214285Y-113620833D01*
X63152380Y-113682738D01*
X63090476Y-113806547D01*
X63090476Y-114177976D01*
X63152380Y-114301785D01*
X63214285Y-114363690D01*
X63338095Y-114425595D01*
X63523809Y-114425595D01*
X61976190Y-114425595D02*
X61976190Y-113125595D01*
X61976190Y-114363690D02*
X62100000Y-114425595D01*
X62347619Y-114425595D01*
X62471428Y-114363690D01*
X62533333Y-114301785D01*
X62595238Y-114177976D01*
X62595238Y-113806547D01*
X62533333Y-113682738D01*
X62471428Y-113620833D01*
X62347619Y-113558928D01*
X62100000Y-113558928D01*
X61976190Y-113620833D01*
X60800000Y-113558928D02*
X60800000Y-114425595D01*
X61357142Y-113558928D02*
X61357142Y-114239880D01*
X61295238Y-114363690D01*
X61171428Y-114425595D01*
X60985714Y-114425595D01*
X60861904Y-114363690D01*
X60800000Y-114301785D01*
X59995238Y-114425595D02*
X60119047Y-114363690D01*
X60180952Y-114239880D01*
X60180952Y-113125595D01*
X59004761Y-114363690D02*
X59128571Y-114425595D01*
X59376190Y-114425595D01*
X59500000Y-114363690D01*
X59561904Y-114239880D01*
X59561904Y-113744642D01*
X59500000Y-113620833D01*
X59376190Y-113558928D01*
X59128571Y-113558928D01*
X59004761Y-113620833D01*
X58942857Y-113744642D01*
X58942857Y-113868452D01*
X59561904Y-113992261D01*
D12*
X79233333Y-109952380D02*
X79709523Y-109952380D01*
X79709523Y-108952380D01*
X78900000Y-109952380D02*
X78900000Y-108952380D01*
X77900000Y-109000000D02*
X77995238Y-108952380D01*
X78138095Y-108952380D01*
X78280952Y-109000000D01*
X78376190Y-109095238D01*
X78423809Y-109190476D01*
X78471428Y-109380952D01*
X78471428Y-109523809D01*
X78423809Y-109714285D01*
X78376190Y-109809523D01*
X78280952Y-109904761D01*
X78138095Y-109952380D01*
X78042857Y-109952380D01*
X77900000Y-109904761D01*
X77852380Y-109857142D01*
X77852380Y-109523809D01*
X78042857Y-109523809D01*
X77423809Y-109952380D02*
X77423809Y-108952380D01*
X77423809Y-109428571D02*
X76852380Y-109428571D01*
X76852380Y-109952380D02*
X76852380Y-108952380D01*
X76519047Y-108952380D02*
X75947619Y-108952380D01*
X76233333Y-109952380D02*
X76233333Y-108952380D01*
X79357142Y-106428571D02*
X79214285Y-106476190D01*
X79166666Y-106523809D01*
X79119047Y-106619047D01*
X79119047Y-106761904D01*
X79166666Y-106857142D01*
X79214285Y-106904761D01*
X79309523Y-106952380D01*
X79690476Y-106952380D01*
X79690476Y-105952380D01*
X79357142Y-105952380D01*
X79261904Y-106000000D01*
X79214285Y-106047619D01*
X79166666Y-106142857D01*
X79166666Y-106238095D01*
X79214285Y-106333333D01*
X79261904Y-106380952D01*
X79357142Y-106428571D01*
X79690476Y-106428571D01*
X78690476Y-105952380D02*
X78690476Y-106761904D01*
X78642857Y-106857142D01*
X78595238Y-106904761D01*
X78500000Y-106952380D01*
X78309523Y-106952380D01*
X78214285Y-106904761D01*
X78166666Y-106857142D01*
X78119047Y-106761904D01*
X78119047Y-105952380D01*
X77738095Y-105952380D02*
X77071428Y-105952380D01*
X77738095Y-106952380D01*
X77071428Y-106952380D01*
X76785714Y-105952380D02*
X76119047Y-105952380D01*
X76785714Y-106952380D01*
X76119047Y-106952380D01*
X75738095Y-106428571D02*
X75404761Y-106428571D01*
X75261904Y-106952380D02*
X75738095Y-106952380D01*
X75738095Y-105952380D01*
X75261904Y-105952380D01*
X74261904Y-106952380D02*
X74595238Y-106476190D01*
X74833333Y-106952380D02*
X74833333Y-105952380D01*
X74452380Y-105952380D01*
X74357142Y-106000000D01*
X74309523Y-106047619D01*
X74261904Y-106142857D01*
X74261904Y-106285714D01*
X74309523Y-106380952D01*
X74357142Y-106428571D01*
X74452380Y-106476190D01*
X74833333Y-106476190D01*
X44523809Y-80052380D02*
X45000000Y-80052380D01*
X45000000Y-79052380D01*
X44190476Y-79528571D02*
X43857142Y-79528571D01*
X43714285Y-80052380D02*
X44190476Y-80052380D01*
X44190476Y-79052380D01*
X43714285Y-79052380D01*
X43285714Y-80052380D02*
X43285714Y-79052380D01*
X43047619Y-79052380D01*
X42904761Y-79100000D01*
X42809523Y-79195238D01*
X42761904Y-79290476D01*
X42714285Y-79480952D01*
X42714285Y-79623809D01*
X42761904Y-79814285D01*
X42809523Y-79909523D01*
X42904761Y-80004761D01*
X43047619Y-80052380D01*
X43285714Y-80052380D01*
X42523809Y-80147619D02*
X41761904Y-80147619D01*
X40952380Y-80052380D02*
X41285714Y-79576190D01*
X41523809Y-80052380D02*
X41523809Y-79052380D01*
X41142857Y-79052380D01*
X41047619Y-79100000D01*
X41000000Y-79147619D01*
X40952380Y-79242857D01*
X40952380Y-79385714D01*
X41000000Y-79480952D01*
X41047619Y-79528571D01*
X41142857Y-79576190D01*
X41523809Y-79576190D01*
X44452380Y-77452380D02*
X44928571Y-77452380D01*
X44928571Y-76452380D01*
X44119047Y-76928571D02*
X43785714Y-76928571D01*
X43642857Y-77452380D02*
X44119047Y-77452380D01*
X44119047Y-76452380D01*
X43642857Y-76452380D01*
X43214285Y-77452380D02*
X43214285Y-76452380D01*
X42976190Y-76452380D01*
X42833333Y-76500000D01*
X42738095Y-76595238D01*
X42690476Y-76690476D01*
X42642857Y-76880952D01*
X42642857Y-77023809D01*
X42690476Y-77214285D01*
X42738095Y-77309523D01*
X42833333Y-77404761D01*
X42976190Y-77452380D01*
X43214285Y-77452380D01*
X42452380Y-77547619D02*
X41690476Y-77547619D01*
X41261904Y-76976190D02*
X41261904Y-77452380D01*
X41595238Y-76452380D02*
X41261904Y-76976190D01*
X40928571Y-76452380D01*
X44523809Y-74952380D02*
X45000000Y-74952380D01*
X45000000Y-73952380D01*
X44190476Y-74428571D02*
X43857142Y-74428571D01*
X43714285Y-74952380D02*
X44190476Y-74952380D01*
X44190476Y-73952380D01*
X43714285Y-73952380D01*
X43285714Y-74952380D02*
X43285714Y-73952380D01*
X43047619Y-73952380D01*
X42904761Y-74000000D01*
X42809523Y-74095238D01*
X42761904Y-74190476D01*
X42714285Y-74380952D01*
X42714285Y-74523809D01*
X42761904Y-74714285D01*
X42809523Y-74809523D01*
X42904761Y-74904761D01*
X43047619Y-74952380D01*
X43285714Y-74952380D01*
X42523809Y-75047619D02*
X41761904Y-75047619D01*
X41000000Y-74000000D02*
X41095238Y-73952380D01*
X41238095Y-73952380D01*
X41380952Y-74000000D01*
X41476190Y-74095238D01*
X41523809Y-74190476D01*
X41571428Y-74380952D01*
X41571428Y-74523809D01*
X41523809Y-74714285D01*
X41476190Y-74809523D01*
X41380952Y-74904761D01*
X41238095Y-74952380D01*
X41142857Y-74952380D01*
X41000000Y-74904761D01*
X40952380Y-74857142D01*
X40952380Y-74523809D01*
X41142857Y-74523809D01*
X45219047Y-72452380D02*
X45219047Y-71452380D01*
X44980952Y-71452380D01*
X44838095Y-71500000D01*
X44742857Y-71595238D01*
X44695238Y-71690476D01*
X44647619Y-71880952D01*
X44647619Y-72023809D01*
X44695238Y-72214285D01*
X44742857Y-72309523D01*
X44838095Y-72404761D01*
X44980952Y-72452380D01*
X45219047Y-72452380D01*
X44219047Y-72452380D02*
X44219047Y-71452380D01*
X44219047Y-71928571D02*
X43647619Y-71928571D01*
X43647619Y-72452380D02*
X43647619Y-71452380D01*
X43314285Y-71452380D02*
X42742857Y-71452380D01*
X43028571Y-72452380D02*
X43028571Y-71452380D01*
X41885714Y-72452380D02*
X42457142Y-72452380D01*
X42171428Y-72452380D02*
X42171428Y-71452380D01*
X42266666Y-71595238D01*
X42361904Y-71690476D01*
X42457142Y-71738095D01*
X40933333Y-72452380D02*
X41504761Y-72452380D01*
X41219047Y-72452380D02*
X41219047Y-71452380D01*
X41314285Y-71595238D01*
X41409523Y-71690476D01*
X41504761Y-71738095D01*
D13*
%TO.C,JP1*%
X82350000Y-108500000D02*
X80950000Y-108500000D01*
X80250000Y-109200000D02*
X80250000Y-109800000D01*
X80950000Y-110500000D02*
X82350000Y-110500000D01*
X83050000Y-109800000D02*
X83050000Y-109200000D01*
X80950000Y-108500000D02*
G75*
G03*
X80250000Y-109200000I0J-700000D01*
G01*
X80250000Y-109800000D02*
G75*
G03*
X80950000Y-110500000I700000J0D01*
G01*
X82350000Y-110500000D02*
G75*
G03*
X83050000Y-109800000I0J700000D01*
G01*
X83050000Y-109200000D02*
G75*
G03*
X82350000Y-108500000I-700000J0D01*
G01*
%TO.C,JP2*%
X83050000Y-106800000D02*
X83050000Y-106200000D01*
X80950000Y-107500000D02*
X82350000Y-107500000D01*
X80250000Y-106200000D02*
X80250000Y-106800000D01*
X82350000Y-105500000D02*
X80950000Y-105500000D01*
X83050000Y-106200000D02*
G75*
G03*
X82350000Y-105500000I-700000J0D01*
G01*
X82350000Y-107500000D02*
G75*
G03*
X83050000Y-106800000I0J700000D01*
G01*
X80250000Y-106800000D02*
G75*
G03*
X80950000Y-107500000I700000J0D01*
G01*
X80950000Y-105500000D02*
G75*
G03*
X80250000Y-106200000I0J-700000D01*
G01*
%TO.C,JP3*%
X38150000Y-73000000D02*
X39550000Y-73000000D01*
X40250000Y-72300000D02*
X40250000Y-71700000D01*
X39550000Y-71000000D02*
X38150000Y-71000000D01*
X37450000Y-71700000D02*
X37450000Y-72300000D01*
X39550000Y-73000000D02*
G75*
G03*
X40250000Y-72300000I0J700000D01*
G01*
X40250000Y-71700000D02*
G75*
G03*
X39550000Y-71000000I-700000J0D01*
G01*
X38150000Y-71000000D02*
G75*
G03*
X37450000Y-71700000I0J-700000D01*
G01*
X37450000Y-72300000D02*
G75*
G03*
X38150000Y-73000000I700000J0D01*
G01*
%TO.C,JP4*%
X37450000Y-74200000D02*
X37450000Y-74800000D01*
X39550000Y-73500000D02*
X38150000Y-73500000D01*
X40250000Y-74800000D02*
X40250000Y-74200000D01*
X38150000Y-75500000D02*
X39550000Y-75500000D01*
X37450000Y-74800000D02*
G75*
G03*
X38150000Y-75500000I700000J0D01*
G01*
X38150000Y-73500000D02*
G75*
G03*
X37450000Y-74200000I0J-700000D01*
G01*
X40250000Y-74200000D02*
G75*
G03*
X39550000Y-73500000I-700000J0D01*
G01*
X39550000Y-75500000D02*
G75*
G03*
X40250000Y-74800000I0J700000D01*
G01*
%TO.C,JP5*%
X38150000Y-78000000D02*
X39550000Y-78000000D01*
X40250000Y-77300000D02*
X40250000Y-76700000D01*
X39550000Y-76000000D02*
X38150000Y-76000000D01*
X37450000Y-76700000D02*
X37450000Y-77300000D01*
X39550000Y-78000000D02*
G75*
G03*
X40250000Y-77300000I0J700000D01*
G01*
X40250000Y-76700000D02*
G75*
G03*
X39550000Y-76000000I-700000J0D01*
G01*
X38150000Y-76000000D02*
G75*
G03*
X37450000Y-76700000I0J-700000D01*
G01*
X37450000Y-77300000D02*
G75*
G03*
X38150000Y-78000000I700000J0D01*
G01*
%TO.C,JP6*%
X37450000Y-79200000D02*
X37450000Y-79800000D01*
X39550000Y-78500000D02*
X38150000Y-78500000D01*
X40250000Y-79800000D02*
X40250000Y-79200000D01*
X38150000Y-80500000D02*
X39550000Y-80500000D01*
X37450000Y-79800000D02*
G75*
G03*
X38150000Y-80500000I700000J0D01*
G01*
X38150000Y-78500000D02*
G75*
G03*
X37450000Y-79200000I0J-700000D01*
G01*
X40250000Y-79200000D02*
G75*
G03*
X39550000Y-78500000I-700000J0D01*
G01*
X39550000Y-80500000D02*
G75*
G03*
X40250000Y-79800000I0J700000D01*
G01*
%TD*%
M02*
