%TF.GenerationSoftware,KiCad,Pcbnew,(5.1.6)-1*%
%TF.CreationDate,2020-10-25T22:56:54+03:00*%
%TF.ProjectId,modular-development-board,6d6f6475-6c61-4722-9d64-6576656c6f70,rev?*%
%TF.SameCoordinates,Original*%
%TF.FileFunction,Profile,NP*%
%FSLAX46Y46*%
G04 Gerber Fmt 4.6, Leading zero omitted, Abs format (unit mm)*
G04 Created by KiCad (PCBNEW (5.1.6)-1) date 2020-10-25 22:56:54*
%MOMM*%
%LPD*%
G01*
G04 APERTURE LIST*
%TA.AperFunction,Profile*%
%ADD10C,0.050000*%
%TD*%
G04 APERTURE END LIST*
D10*
X58000000Y-54000000D02*
X48000000Y-54000000D01*
X48000000Y-54000000D02*
X48000000Y-64000000D01*
X98000000Y-100000000D02*
G75*
G02*
X98000000Y-99000000I0J500000D01*
G01*
X98000000Y-99000000D02*
X108000000Y-99000000D01*
X94000000Y-99000000D02*
X96000000Y-99000000D01*
X96000000Y-99000000D02*
G75*
G02*
X96000000Y-100000000I0J-500000D01*
G01*
X98000000Y-100000000D02*
X107000000Y-100000000D01*
X94000000Y-100000000D02*
X96000000Y-100000000D01*
X93000000Y-104000000D02*
G75*
G02*
X94000000Y-104000000I500000J0D01*
G01*
X94000000Y-104000000D02*
X94000000Y-113000000D01*
X94000000Y-102000000D02*
G75*
G02*
X93000000Y-102000000I-500000J0D01*
G01*
X94000000Y-100000000D02*
X94000000Y-102000000D01*
X93000000Y-100000000D02*
X93000000Y-102000000D01*
X93000000Y-104000000D02*
X93000000Y-114000000D01*
X47000000Y-100000000D02*
X47000000Y-102000000D01*
X47000000Y-104000000D02*
X47000000Y-113000000D01*
X48000000Y-102000000D02*
G75*
G02*
X47000000Y-102000000I-500000J0D01*
G01*
X48000000Y-104000000D02*
X48000000Y-114000000D01*
X47000000Y-104000000D02*
G75*
G02*
X48000000Y-104000000I500000J0D01*
G01*
X48000000Y-100000000D02*
X48000000Y-102000000D01*
X45000000Y-100000000D02*
G75*
G02*
X45000000Y-99000000I0J500000D01*
G01*
X43000000Y-100000000D02*
X34000000Y-100000000D01*
X47000000Y-99000000D02*
X45000000Y-99000000D01*
X47000000Y-100000000D02*
X45000000Y-100000000D01*
X43000000Y-99000000D02*
G75*
G02*
X43000000Y-100000000I0J-500000D01*
G01*
X43000000Y-99000000D02*
X33000000Y-99000000D01*
X47000000Y-54000000D02*
X45000000Y-54000000D01*
X43000000Y-53000000D02*
X34000000Y-53000000D01*
X43000000Y-53000000D02*
G75*
G02*
X43000000Y-54000000I0J-500000D01*
G01*
X45000000Y-54000000D02*
G75*
G02*
X45000000Y-53000000I0J500000D01*
G01*
X47000000Y-53000000D02*
X45000000Y-53000000D01*
X43000000Y-54000000D02*
X33000000Y-54000000D01*
X48000000Y-53000000D02*
X48000000Y-51000000D01*
X47000000Y-49000000D02*
X47000000Y-40000000D01*
X47000000Y-51000000D02*
G75*
G02*
X48000000Y-51000000I500000J0D01*
G01*
X48000000Y-49000000D02*
G75*
G02*
X47000000Y-49000000I-500000J0D01*
G01*
X48000000Y-49000000D02*
X48000000Y-39000000D01*
X47000000Y-53000000D02*
X47000000Y-51000000D01*
X93000000Y-49000000D02*
X93000000Y-39000000D01*
X93000000Y-51000000D02*
G75*
G02*
X94000000Y-51000000I500000J0D01*
G01*
X94000000Y-49000000D02*
X94000000Y-40000000D01*
X94000000Y-49000000D02*
G75*
G02*
X93000000Y-49000000I-500000J0D01*
G01*
X94000000Y-53000000D02*
X94000000Y-51000000D01*
X93000000Y-53000000D02*
X93000000Y-51000000D01*
X96000000Y-53000000D02*
G75*
G02*
X96000000Y-54000000I0J-500000D01*
G01*
X98000000Y-54000000D02*
G75*
G02*
X98000000Y-53000000I0J500000D01*
G01*
X98000000Y-54000000D02*
X108000000Y-54000000D01*
X98000000Y-53000000D02*
X107000000Y-53000000D01*
X34000000Y-53000000D02*
X47000000Y-40000000D01*
X107000000Y-53000000D02*
X94000000Y-40000000D01*
X94000000Y-53000000D02*
X96000000Y-53000000D01*
X107000000Y-100000000D02*
X94000000Y-113000000D01*
X34000000Y-100000000D02*
X47000000Y-113000000D01*
X48000000Y-75000000D02*
G75*
G02*
X47000000Y-75000000I-500000J0D01*
G01*
X47000000Y-67000000D02*
X47000000Y-75000000D01*
X48000000Y-75000000D02*
X48000000Y-67000000D01*
X47000000Y-78000000D02*
X47000000Y-86000000D01*
X47000000Y-78000000D02*
G75*
G02*
X48000000Y-78000000I500000J0D01*
G01*
X48000000Y-86000000D02*
X48000000Y-78000000D01*
X93000000Y-78000000D02*
G75*
G02*
X94000000Y-78000000I500000J0D01*
G01*
X94000000Y-75000000D02*
X94000000Y-67000000D01*
X93000000Y-78000000D02*
X93000000Y-86000000D01*
X93000000Y-67000000D02*
X93000000Y-75000000D01*
X94000000Y-75000000D02*
G75*
G02*
X93000000Y-75000000I-500000J0D01*
G01*
X94000000Y-86000000D02*
X94000000Y-78000000D01*
X72000000Y-100000000D02*
G75*
G02*
X72000000Y-99000000I0J500000D01*
G01*
X61000000Y-100000000D02*
X69000000Y-100000000D01*
X80000000Y-99000000D02*
X72000000Y-99000000D01*
X69000000Y-99000000D02*
G75*
G02*
X69000000Y-100000000I0J-500000D01*
G01*
X72000000Y-100000000D02*
X80000000Y-100000000D01*
X69000000Y-99000000D02*
X61000000Y-99000000D01*
X61000000Y-54000000D02*
X69000000Y-54000000D01*
X69000000Y-53000000D02*
X61000000Y-53000000D01*
X72000000Y-54000000D02*
X80000000Y-54000000D01*
X80000000Y-53000000D02*
X72000000Y-53000000D01*
X72000000Y-54000000D02*
G75*
G02*
X72000000Y-53000000I0J500000D01*
G01*
X69000000Y-53000000D02*
G75*
G02*
X69000000Y-54000000I0J-500000D01*
G01*
X94000000Y-86000000D02*
G75*
G02*
X93000000Y-86000000I-500000J0D01*
G01*
X93000000Y-89000000D02*
G75*
G02*
X94000000Y-89000000I500000J0D01*
G01*
X94000000Y-64000000D02*
G75*
G02*
X93000000Y-64000000I-500000J0D01*
G01*
X93000000Y-67000000D02*
G75*
G02*
X94000000Y-67000000I500000J0D01*
G01*
X48000000Y-64000000D02*
G75*
G02*
X47000000Y-64000000I-500000J0D01*
G01*
X47000000Y-67000000D02*
G75*
G02*
X48000000Y-67000000I500000J0D01*
G01*
X47000000Y-89000000D02*
G75*
G02*
X48000000Y-89000000I500000J0D01*
G01*
X48000000Y-86000000D02*
G75*
G02*
X47000000Y-86000000I-500000J0D01*
G01*
X58000000Y-99000000D02*
G75*
G02*
X58000000Y-100000000I0J-500000D01*
G01*
X61000000Y-100000000D02*
G75*
G02*
X61000000Y-99000000I0J500000D01*
G01*
X83000000Y-100000000D02*
G75*
G02*
X83000000Y-99000000I0J500000D01*
G01*
X80000000Y-99000000D02*
G75*
G02*
X80000000Y-100000000I0J-500000D01*
G01*
X83000000Y-54000000D02*
G75*
G02*
X83000000Y-53000000I0J500000D01*
G01*
X80000000Y-53000000D02*
G75*
G02*
X80000000Y-54000000I0J-500000D01*
G01*
X61000000Y-54000000D02*
G75*
G02*
X61000000Y-53000000I0J500000D01*
G01*
X58000000Y-53000000D02*
G75*
G02*
X58000000Y-54000000I0J-500000D01*
G01*
X47000000Y-89000000D02*
X47000000Y-99000000D01*
X48000000Y-99000000D02*
X48000000Y-89000000D01*
X94000000Y-89000000D02*
X94000000Y-99000000D01*
X93000000Y-99000000D02*
X93000000Y-89000000D01*
X94000000Y-64000000D02*
X94000000Y-54000000D01*
X93000000Y-54000000D02*
X93000000Y-64000000D01*
X83000000Y-54000000D02*
X93000000Y-54000000D01*
X93000000Y-53000000D02*
X83000000Y-53000000D01*
X47000000Y-64000000D02*
X47000000Y-54000000D01*
X48000000Y-53000000D02*
X58000000Y-53000000D01*
X83000000Y-100000000D02*
X93000000Y-100000000D01*
X93000000Y-99000000D02*
X83000000Y-99000000D01*
X58000000Y-99000000D02*
X48000000Y-99000000D01*
X48000000Y-100000000D02*
X58000000Y-100000000D01*
X50000000Y-37000000D02*
X48000000Y-39000000D01*
X93000000Y-39000000D02*
X91000000Y-37000000D01*
X108000000Y-99000000D02*
X110000000Y-97000000D01*
X110000000Y-56000000D02*
X108000000Y-54000000D01*
X50000000Y-116000000D02*
X48000000Y-114000000D01*
X93000000Y-114000000D02*
X91000000Y-116000000D01*
X31000000Y-97000000D02*
X33000000Y-99000000D01*
X33000000Y-54000000D02*
X31000000Y-56000000D01*
X31000000Y-56000000D02*
X31000000Y-97000000D01*
X50000000Y-116000000D02*
X91000000Y-116000000D01*
X110000000Y-56000000D02*
X110000000Y-97000000D01*
X94000000Y-54000000D02*
X96000000Y-54000000D01*
X50000000Y-37000000D02*
X91000000Y-37000000D01*
M02*
