%TF.GenerationSoftware,KiCad,Pcbnew,(5.1.6)-1*%
%TF.CreationDate,2020-10-25T22:56:54+03:00*%
%TF.ProjectId,modular-development-board,6d6f6475-6c61-4722-9d64-6576656c6f70,rev?*%
%TF.SameCoordinates,Original*%
%TF.FileFunction,Soldermask,Bot*%
%TF.FilePolarity,Negative*%
%FSLAX46Y46*%
G04 Gerber Fmt 4.6, Leading zero omitted, Abs format (unit mm)*
G04 Created by KiCad (PCBNEW (5.1.6)-1) date 2020-10-25 22:56:54*
%MOMM*%
%LPD*%
G01*
G04 APERTURE LIST*
%ADD10R,1.800000X1.800000*%
%ADD11O,1.800000X1.800000*%
%ADD12R,1.600000X1.600000*%
%ADD13C,1.600000*%
%ADD14R,2.100000X2.100000*%
%ADD15C,2.100000*%
%ADD16R,3.600000X3.600000*%
%ADD17C,0.100000*%
%ADD18C,0.800000*%
%ADD19C,4.500000*%
G04 APERTURE END LIST*
D10*
%TO.C,J3*%
X85304800Y-45000000D03*
D11*
X85304800Y-47540000D03*
X85304800Y-50080000D03*
%TD*%
%TO.C,J2*%
X90304800Y-50080000D03*
X90304800Y-47540000D03*
D10*
X90304800Y-45000000D03*
%TD*%
%TO.C,J4*%
X85304800Y-40000000D03*
D11*
X87844800Y-40000000D03*
X90384800Y-40000000D03*
%TD*%
D12*
%TO.C,U5*%
X35000000Y-94000000D03*
D13*
X37540000Y-94000000D03*
X40080000Y-94000000D03*
X42620000Y-94000000D03*
%TD*%
D14*
%TO.C,BZ1*%
X55000000Y-108000000D03*
D15*
X62600000Y-108000000D03*
%TD*%
D16*
%TO.C,J1*%
X56000000Y-47000000D03*
G36*
G01*
X54975000Y-39450000D02*
X57025000Y-39450000D01*
G75*
G02*
X57800000Y-40225000I0J-775000D01*
G01*
X57800000Y-41775000D01*
G75*
G02*
X57025000Y-42550000I-775000J0D01*
G01*
X54975000Y-42550000D01*
G75*
G02*
X54200000Y-41775000I0J775000D01*
G01*
X54200000Y-40225000D01*
G75*
G02*
X54975000Y-39450000I775000J0D01*
G01*
G37*
G36*
G01*
X50400000Y-42200000D02*
X52200000Y-42200000D01*
G75*
G02*
X53100000Y-43100000I0J-900000D01*
G01*
X53100000Y-44900000D01*
G75*
G02*
X52200000Y-45800000I-900000J0D01*
G01*
X50400000Y-45800000D01*
G75*
G02*
X49500000Y-44900000I0J900000D01*
G01*
X49500000Y-43100000D01*
G75*
G02*
X50400000Y-42200000I900000J0D01*
G01*
G37*
%TD*%
D10*
%TO.C,J5*%
X80620000Y-58000000D03*
D11*
X78080000Y-58000000D03*
X75540000Y-58000000D03*
X73000000Y-58000000D03*
X70460000Y-58000000D03*
X67920000Y-58000000D03*
X65380000Y-58000000D03*
X62840000Y-58000000D03*
%TD*%
D10*
%TO.C,J6*%
X62300000Y-95000000D03*
D11*
X64840000Y-95000000D03*
X67380000Y-95000000D03*
X69920000Y-95000000D03*
X72460000Y-95000000D03*
X75000000Y-95000000D03*
X77540000Y-95000000D03*
%TD*%
%TO.C,J7*%
X89000000Y-68220000D03*
X89000000Y-70760000D03*
X89000000Y-73300000D03*
X89000000Y-75840000D03*
X89000000Y-78380000D03*
X89000000Y-80920000D03*
X89000000Y-83460000D03*
D10*
X89000000Y-86000000D03*
%TD*%
%TO.C,J8*%
X53000000Y-76000000D03*
D11*
X53000000Y-73460000D03*
X53000000Y-70920000D03*
X53000000Y-68380000D03*
X53000000Y-65840000D03*
%TD*%
D10*
%TO.C,J9*%
X52000000Y-84000000D03*
D11*
X54540000Y-84000000D03*
X52000000Y-86540000D03*
X54540000Y-86540000D03*
X52000000Y-89080000D03*
X54540000Y-89080000D03*
%TD*%
D10*
%TO.C,J10*%
X34000000Y-69380000D03*
D11*
X34000000Y-71920000D03*
X34000000Y-74460000D03*
X34000000Y-77000000D03*
X34000000Y-79540000D03*
X34000000Y-82080000D03*
%TD*%
D10*
%TO.C,J11*%
X86000000Y-112000000D03*
D11*
X86000000Y-109460000D03*
X86000000Y-106920000D03*
X86000000Y-104380000D03*
%TD*%
D10*
%TO.C,J13*%
X106000000Y-57000000D03*
D11*
X103460000Y-57000000D03*
X100920000Y-57000000D03*
X98380000Y-57000000D03*
%TD*%
D17*
%TO.C,JP1*%
G36*
X81790245Y-110299039D02*
G01*
X81780866Y-110296194D01*
X81772221Y-110291573D01*
X81764645Y-110285355D01*
X81758427Y-110277779D01*
X81753806Y-110269134D01*
X81750961Y-110259755D01*
X81750000Y-110250000D01*
X81750000Y-108750000D01*
X81750961Y-108740245D01*
X81753806Y-108730866D01*
X81758427Y-108722221D01*
X81764645Y-108714645D01*
X81772221Y-108708427D01*
X81780866Y-108703806D01*
X81790245Y-108700961D01*
X81800000Y-108700000D01*
X82300000Y-108700000D01*
X82306111Y-108700602D01*
X82324534Y-108700602D01*
X82329435Y-108700843D01*
X82378266Y-108705653D01*
X82383119Y-108706373D01*
X82431244Y-108715945D01*
X82436005Y-108717137D01*
X82482960Y-108731381D01*
X82487579Y-108733034D01*
X82532912Y-108751811D01*
X82537349Y-108753909D01*
X82580622Y-108777040D01*
X82584829Y-108779562D01*
X82625628Y-108806822D01*
X82629570Y-108809746D01*
X82667499Y-108840874D01*
X82671134Y-108844169D01*
X82705831Y-108878866D01*
X82709126Y-108882501D01*
X82740254Y-108920430D01*
X82743178Y-108924372D01*
X82770438Y-108965171D01*
X82772960Y-108969378D01*
X82796091Y-109012651D01*
X82798189Y-109017088D01*
X82816966Y-109062421D01*
X82818619Y-109067040D01*
X82832863Y-109113995D01*
X82834055Y-109118756D01*
X82843627Y-109166881D01*
X82844347Y-109171734D01*
X82849157Y-109220565D01*
X82849398Y-109225466D01*
X82849398Y-109243889D01*
X82850000Y-109250000D01*
X82850000Y-109750000D01*
X82849398Y-109756111D01*
X82849398Y-109774534D01*
X82849157Y-109779435D01*
X82844347Y-109828266D01*
X82843627Y-109833119D01*
X82834055Y-109881244D01*
X82832863Y-109886005D01*
X82818619Y-109932960D01*
X82816966Y-109937579D01*
X82798189Y-109982912D01*
X82796091Y-109987349D01*
X82772960Y-110030622D01*
X82770438Y-110034829D01*
X82743178Y-110075628D01*
X82740254Y-110079570D01*
X82709126Y-110117499D01*
X82705831Y-110121134D01*
X82671134Y-110155831D01*
X82667499Y-110159126D01*
X82629570Y-110190254D01*
X82625628Y-110193178D01*
X82584829Y-110220438D01*
X82580622Y-110222960D01*
X82537349Y-110246091D01*
X82532912Y-110248189D01*
X82487579Y-110266966D01*
X82482960Y-110268619D01*
X82436005Y-110282863D01*
X82431244Y-110284055D01*
X82383119Y-110293627D01*
X82378266Y-110294347D01*
X82329435Y-110299157D01*
X82324534Y-110299398D01*
X82306111Y-110299398D01*
X82300000Y-110300000D01*
X81800000Y-110300000D01*
X81790245Y-110299039D01*
G37*
G36*
X80993889Y-110299398D02*
G01*
X80975466Y-110299398D01*
X80970565Y-110299157D01*
X80921734Y-110294347D01*
X80916881Y-110293627D01*
X80868756Y-110284055D01*
X80863995Y-110282863D01*
X80817040Y-110268619D01*
X80812421Y-110266966D01*
X80767088Y-110248189D01*
X80762651Y-110246091D01*
X80719378Y-110222960D01*
X80715171Y-110220438D01*
X80674372Y-110193178D01*
X80670430Y-110190254D01*
X80632501Y-110159126D01*
X80628866Y-110155831D01*
X80594169Y-110121134D01*
X80590874Y-110117499D01*
X80559746Y-110079570D01*
X80556822Y-110075628D01*
X80529562Y-110034829D01*
X80527040Y-110030622D01*
X80503909Y-109987349D01*
X80501811Y-109982912D01*
X80483034Y-109937579D01*
X80481381Y-109932960D01*
X80467137Y-109886005D01*
X80465945Y-109881244D01*
X80456373Y-109833119D01*
X80455653Y-109828266D01*
X80450843Y-109779435D01*
X80450602Y-109774534D01*
X80450602Y-109756111D01*
X80450000Y-109750000D01*
X80450000Y-109250000D01*
X80450602Y-109243889D01*
X80450602Y-109225466D01*
X80450843Y-109220565D01*
X80455653Y-109171734D01*
X80456373Y-109166881D01*
X80465945Y-109118756D01*
X80467137Y-109113995D01*
X80481381Y-109067040D01*
X80483034Y-109062421D01*
X80501811Y-109017088D01*
X80503909Y-109012651D01*
X80527040Y-108969378D01*
X80529562Y-108965171D01*
X80556822Y-108924372D01*
X80559746Y-108920430D01*
X80590874Y-108882501D01*
X80594169Y-108878866D01*
X80628866Y-108844169D01*
X80632501Y-108840874D01*
X80670430Y-108809746D01*
X80674372Y-108806822D01*
X80715171Y-108779562D01*
X80719378Y-108777040D01*
X80762651Y-108753909D01*
X80767088Y-108751811D01*
X80812421Y-108733034D01*
X80817040Y-108731381D01*
X80863995Y-108717137D01*
X80868756Y-108715945D01*
X80916881Y-108706373D01*
X80921734Y-108705653D01*
X80970565Y-108700843D01*
X80975466Y-108700602D01*
X80993889Y-108700602D01*
X81000000Y-108700000D01*
X81500000Y-108700000D01*
X81509755Y-108700961D01*
X81519134Y-108703806D01*
X81527779Y-108708427D01*
X81535355Y-108714645D01*
X81541573Y-108722221D01*
X81546194Y-108730866D01*
X81549039Y-108740245D01*
X81550000Y-108750000D01*
X81550000Y-110250000D01*
X81549039Y-110259755D01*
X81546194Y-110269134D01*
X81541573Y-110277779D01*
X81535355Y-110285355D01*
X81527779Y-110291573D01*
X81519134Y-110296194D01*
X81509755Y-110299039D01*
X81500000Y-110300000D01*
X81000000Y-110300000D01*
X80993889Y-110299398D01*
G37*
%TD*%
%TO.C,JP2*%
G36*
X80993889Y-107299398D02*
G01*
X80975466Y-107299398D01*
X80970565Y-107299157D01*
X80921734Y-107294347D01*
X80916881Y-107293627D01*
X80868756Y-107284055D01*
X80863995Y-107282863D01*
X80817040Y-107268619D01*
X80812421Y-107266966D01*
X80767088Y-107248189D01*
X80762651Y-107246091D01*
X80719378Y-107222960D01*
X80715171Y-107220438D01*
X80674372Y-107193178D01*
X80670430Y-107190254D01*
X80632501Y-107159126D01*
X80628866Y-107155831D01*
X80594169Y-107121134D01*
X80590874Y-107117499D01*
X80559746Y-107079570D01*
X80556822Y-107075628D01*
X80529562Y-107034829D01*
X80527040Y-107030622D01*
X80503909Y-106987349D01*
X80501811Y-106982912D01*
X80483034Y-106937579D01*
X80481381Y-106932960D01*
X80467137Y-106886005D01*
X80465945Y-106881244D01*
X80456373Y-106833119D01*
X80455653Y-106828266D01*
X80450843Y-106779435D01*
X80450602Y-106774534D01*
X80450602Y-106756111D01*
X80450000Y-106750000D01*
X80450000Y-106250000D01*
X80450602Y-106243889D01*
X80450602Y-106225466D01*
X80450843Y-106220565D01*
X80455653Y-106171734D01*
X80456373Y-106166881D01*
X80465945Y-106118756D01*
X80467137Y-106113995D01*
X80481381Y-106067040D01*
X80483034Y-106062421D01*
X80501811Y-106017088D01*
X80503909Y-106012651D01*
X80527040Y-105969378D01*
X80529562Y-105965171D01*
X80556822Y-105924372D01*
X80559746Y-105920430D01*
X80590874Y-105882501D01*
X80594169Y-105878866D01*
X80628866Y-105844169D01*
X80632501Y-105840874D01*
X80670430Y-105809746D01*
X80674372Y-105806822D01*
X80715171Y-105779562D01*
X80719378Y-105777040D01*
X80762651Y-105753909D01*
X80767088Y-105751811D01*
X80812421Y-105733034D01*
X80817040Y-105731381D01*
X80863995Y-105717137D01*
X80868756Y-105715945D01*
X80916881Y-105706373D01*
X80921734Y-105705653D01*
X80970565Y-105700843D01*
X80975466Y-105700602D01*
X80993889Y-105700602D01*
X81000000Y-105700000D01*
X81500000Y-105700000D01*
X81509755Y-105700961D01*
X81519134Y-105703806D01*
X81527779Y-105708427D01*
X81535355Y-105714645D01*
X81541573Y-105722221D01*
X81546194Y-105730866D01*
X81549039Y-105740245D01*
X81550000Y-105750000D01*
X81550000Y-107250000D01*
X81549039Y-107259755D01*
X81546194Y-107269134D01*
X81541573Y-107277779D01*
X81535355Y-107285355D01*
X81527779Y-107291573D01*
X81519134Y-107296194D01*
X81509755Y-107299039D01*
X81500000Y-107300000D01*
X81000000Y-107300000D01*
X80993889Y-107299398D01*
G37*
G36*
X81790245Y-107299039D02*
G01*
X81780866Y-107296194D01*
X81772221Y-107291573D01*
X81764645Y-107285355D01*
X81758427Y-107277779D01*
X81753806Y-107269134D01*
X81750961Y-107259755D01*
X81750000Y-107250000D01*
X81750000Y-105750000D01*
X81750961Y-105740245D01*
X81753806Y-105730866D01*
X81758427Y-105722221D01*
X81764645Y-105714645D01*
X81772221Y-105708427D01*
X81780866Y-105703806D01*
X81790245Y-105700961D01*
X81800000Y-105700000D01*
X82300000Y-105700000D01*
X82306111Y-105700602D01*
X82324534Y-105700602D01*
X82329435Y-105700843D01*
X82378266Y-105705653D01*
X82383119Y-105706373D01*
X82431244Y-105715945D01*
X82436005Y-105717137D01*
X82482960Y-105731381D01*
X82487579Y-105733034D01*
X82532912Y-105751811D01*
X82537349Y-105753909D01*
X82580622Y-105777040D01*
X82584829Y-105779562D01*
X82625628Y-105806822D01*
X82629570Y-105809746D01*
X82667499Y-105840874D01*
X82671134Y-105844169D01*
X82705831Y-105878866D01*
X82709126Y-105882501D01*
X82740254Y-105920430D01*
X82743178Y-105924372D01*
X82770438Y-105965171D01*
X82772960Y-105969378D01*
X82796091Y-106012651D01*
X82798189Y-106017088D01*
X82816966Y-106062421D01*
X82818619Y-106067040D01*
X82832863Y-106113995D01*
X82834055Y-106118756D01*
X82843627Y-106166881D01*
X82844347Y-106171734D01*
X82849157Y-106220565D01*
X82849398Y-106225466D01*
X82849398Y-106243889D01*
X82850000Y-106250000D01*
X82850000Y-106750000D01*
X82849398Y-106756111D01*
X82849398Y-106774534D01*
X82849157Y-106779435D01*
X82844347Y-106828266D01*
X82843627Y-106833119D01*
X82834055Y-106881244D01*
X82832863Y-106886005D01*
X82818619Y-106932960D01*
X82816966Y-106937579D01*
X82798189Y-106982912D01*
X82796091Y-106987349D01*
X82772960Y-107030622D01*
X82770438Y-107034829D01*
X82743178Y-107075628D01*
X82740254Y-107079570D01*
X82709126Y-107117499D01*
X82705831Y-107121134D01*
X82671134Y-107155831D01*
X82667499Y-107159126D01*
X82629570Y-107190254D01*
X82625628Y-107193178D01*
X82584829Y-107220438D01*
X82580622Y-107222960D01*
X82537349Y-107246091D01*
X82532912Y-107248189D01*
X82487579Y-107266966D01*
X82482960Y-107268619D01*
X82436005Y-107282863D01*
X82431244Y-107284055D01*
X82383119Y-107293627D01*
X82378266Y-107294347D01*
X82329435Y-107299157D01*
X82324534Y-107299398D01*
X82306111Y-107299398D01*
X82300000Y-107300000D01*
X81800000Y-107300000D01*
X81790245Y-107299039D01*
G37*
%TD*%
%TO.C,JP3*%
G36*
X38709755Y-71200961D02*
G01*
X38719134Y-71203806D01*
X38727779Y-71208427D01*
X38735355Y-71214645D01*
X38741573Y-71222221D01*
X38746194Y-71230866D01*
X38749039Y-71240245D01*
X38750000Y-71250000D01*
X38750000Y-72750000D01*
X38749039Y-72759755D01*
X38746194Y-72769134D01*
X38741573Y-72777779D01*
X38735355Y-72785355D01*
X38727779Y-72791573D01*
X38719134Y-72796194D01*
X38709755Y-72799039D01*
X38700000Y-72800000D01*
X38200000Y-72800000D01*
X38193889Y-72799398D01*
X38175466Y-72799398D01*
X38170565Y-72799157D01*
X38121734Y-72794347D01*
X38116881Y-72793627D01*
X38068756Y-72784055D01*
X38063995Y-72782863D01*
X38017040Y-72768619D01*
X38012421Y-72766966D01*
X37967088Y-72748189D01*
X37962651Y-72746091D01*
X37919378Y-72722960D01*
X37915171Y-72720438D01*
X37874372Y-72693178D01*
X37870430Y-72690254D01*
X37832501Y-72659126D01*
X37828866Y-72655831D01*
X37794169Y-72621134D01*
X37790874Y-72617499D01*
X37759746Y-72579570D01*
X37756822Y-72575628D01*
X37729562Y-72534829D01*
X37727040Y-72530622D01*
X37703909Y-72487349D01*
X37701811Y-72482912D01*
X37683034Y-72437579D01*
X37681381Y-72432960D01*
X37667137Y-72386005D01*
X37665945Y-72381244D01*
X37656373Y-72333119D01*
X37655653Y-72328266D01*
X37650843Y-72279435D01*
X37650602Y-72274534D01*
X37650602Y-72256111D01*
X37650000Y-72250000D01*
X37650000Y-71750000D01*
X37650602Y-71743889D01*
X37650602Y-71725466D01*
X37650843Y-71720565D01*
X37655653Y-71671734D01*
X37656373Y-71666881D01*
X37665945Y-71618756D01*
X37667137Y-71613995D01*
X37681381Y-71567040D01*
X37683034Y-71562421D01*
X37701811Y-71517088D01*
X37703909Y-71512651D01*
X37727040Y-71469378D01*
X37729562Y-71465171D01*
X37756822Y-71424372D01*
X37759746Y-71420430D01*
X37790874Y-71382501D01*
X37794169Y-71378866D01*
X37828866Y-71344169D01*
X37832501Y-71340874D01*
X37870430Y-71309746D01*
X37874372Y-71306822D01*
X37915171Y-71279562D01*
X37919378Y-71277040D01*
X37962651Y-71253909D01*
X37967088Y-71251811D01*
X38012421Y-71233034D01*
X38017040Y-71231381D01*
X38063995Y-71217137D01*
X38068756Y-71215945D01*
X38116881Y-71206373D01*
X38121734Y-71205653D01*
X38170565Y-71200843D01*
X38175466Y-71200602D01*
X38193889Y-71200602D01*
X38200000Y-71200000D01*
X38700000Y-71200000D01*
X38709755Y-71200961D01*
G37*
G36*
X39506111Y-71200602D02*
G01*
X39524534Y-71200602D01*
X39529435Y-71200843D01*
X39578266Y-71205653D01*
X39583119Y-71206373D01*
X39631244Y-71215945D01*
X39636005Y-71217137D01*
X39682960Y-71231381D01*
X39687579Y-71233034D01*
X39732912Y-71251811D01*
X39737349Y-71253909D01*
X39780622Y-71277040D01*
X39784829Y-71279562D01*
X39825628Y-71306822D01*
X39829570Y-71309746D01*
X39867499Y-71340874D01*
X39871134Y-71344169D01*
X39905831Y-71378866D01*
X39909126Y-71382501D01*
X39940254Y-71420430D01*
X39943178Y-71424372D01*
X39970438Y-71465171D01*
X39972960Y-71469378D01*
X39996091Y-71512651D01*
X39998189Y-71517088D01*
X40016966Y-71562421D01*
X40018619Y-71567040D01*
X40032863Y-71613995D01*
X40034055Y-71618756D01*
X40043627Y-71666881D01*
X40044347Y-71671734D01*
X40049157Y-71720565D01*
X40049398Y-71725466D01*
X40049398Y-71743889D01*
X40050000Y-71750000D01*
X40050000Y-72250000D01*
X40049398Y-72256111D01*
X40049398Y-72274534D01*
X40049157Y-72279435D01*
X40044347Y-72328266D01*
X40043627Y-72333119D01*
X40034055Y-72381244D01*
X40032863Y-72386005D01*
X40018619Y-72432960D01*
X40016966Y-72437579D01*
X39998189Y-72482912D01*
X39996091Y-72487349D01*
X39972960Y-72530622D01*
X39970438Y-72534829D01*
X39943178Y-72575628D01*
X39940254Y-72579570D01*
X39909126Y-72617499D01*
X39905831Y-72621134D01*
X39871134Y-72655831D01*
X39867499Y-72659126D01*
X39829570Y-72690254D01*
X39825628Y-72693178D01*
X39784829Y-72720438D01*
X39780622Y-72722960D01*
X39737349Y-72746091D01*
X39732912Y-72748189D01*
X39687579Y-72766966D01*
X39682960Y-72768619D01*
X39636005Y-72782863D01*
X39631244Y-72784055D01*
X39583119Y-72793627D01*
X39578266Y-72794347D01*
X39529435Y-72799157D01*
X39524534Y-72799398D01*
X39506111Y-72799398D01*
X39500000Y-72800000D01*
X39000000Y-72800000D01*
X38990245Y-72799039D01*
X38980866Y-72796194D01*
X38972221Y-72791573D01*
X38964645Y-72785355D01*
X38958427Y-72777779D01*
X38953806Y-72769134D01*
X38950961Y-72759755D01*
X38950000Y-72750000D01*
X38950000Y-71250000D01*
X38950961Y-71240245D01*
X38953806Y-71230866D01*
X38958427Y-71222221D01*
X38964645Y-71214645D01*
X38972221Y-71208427D01*
X38980866Y-71203806D01*
X38990245Y-71200961D01*
X39000000Y-71200000D01*
X39500000Y-71200000D01*
X39506111Y-71200602D01*
G37*
%TD*%
%TO.C,JP4*%
G36*
X39506111Y-73700602D02*
G01*
X39524534Y-73700602D01*
X39529435Y-73700843D01*
X39578266Y-73705653D01*
X39583119Y-73706373D01*
X39631244Y-73715945D01*
X39636005Y-73717137D01*
X39682960Y-73731381D01*
X39687579Y-73733034D01*
X39732912Y-73751811D01*
X39737349Y-73753909D01*
X39780622Y-73777040D01*
X39784829Y-73779562D01*
X39825628Y-73806822D01*
X39829570Y-73809746D01*
X39867499Y-73840874D01*
X39871134Y-73844169D01*
X39905831Y-73878866D01*
X39909126Y-73882501D01*
X39940254Y-73920430D01*
X39943178Y-73924372D01*
X39970438Y-73965171D01*
X39972960Y-73969378D01*
X39996091Y-74012651D01*
X39998189Y-74017088D01*
X40016966Y-74062421D01*
X40018619Y-74067040D01*
X40032863Y-74113995D01*
X40034055Y-74118756D01*
X40043627Y-74166881D01*
X40044347Y-74171734D01*
X40049157Y-74220565D01*
X40049398Y-74225466D01*
X40049398Y-74243889D01*
X40050000Y-74250000D01*
X40050000Y-74750000D01*
X40049398Y-74756111D01*
X40049398Y-74774534D01*
X40049157Y-74779435D01*
X40044347Y-74828266D01*
X40043627Y-74833119D01*
X40034055Y-74881244D01*
X40032863Y-74886005D01*
X40018619Y-74932960D01*
X40016966Y-74937579D01*
X39998189Y-74982912D01*
X39996091Y-74987349D01*
X39972960Y-75030622D01*
X39970438Y-75034829D01*
X39943178Y-75075628D01*
X39940254Y-75079570D01*
X39909126Y-75117499D01*
X39905831Y-75121134D01*
X39871134Y-75155831D01*
X39867499Y-75159126D01*
X39829570Y-75190254D01*
X39825628Y-75193178D01*
X39784829Y-75220438D01*
X39780622Y-75222960D01*
X39737349Y-75246091D01*
X39732912Y-75248189D01*
X39687579Y-75266966D01*
X39682960Y-75268619D01*
X39636005Y-75282863D01*
X39631244Y-75284055D01*
X39583119Y-75293627D01*
X39578266Y-75294347D01*
X39529435Y-75299157D01*
X39524534Y-75299398D01*
X39506111Y-75299398D01*
X39500000Y-75300000D01*
X39000000Y-75300000D01*
X38990245Y-75299039D01*
X38980866Y-75296194D01*
X38972221Y-75291573D01*
X38964645Y-75285355D01*
X38958427Y-75277779D01*
X38953806Y-75269134D01*
X38950961Y-75259755D01*
X38950000Y-75250000D01*
X38950000Y-73750000D01*
X38950961Y-73740245D01*
X38953806Y-73730866D01*
X38958427Y-73722221D01*
X38964645Y-73714645D01*
X38972221Y-73708427D01*
X38980866Y-73703806D01*
X38990245Y-73700961D01*
X39000000Y-73700000D01*
X39500000Y-73700000D01*
X39506111Y-73700602D01*
G37*
G36*
X38709755Y-73700961D02*
G01*
X38719134Y-73703806D01*
X38727779Y-73708427D01*
X38735355Y-73714645D01*
X38741573Y-73722221D01*
X38746194Y-73730866D01*
X38749039Y-73740245D01*
X38750000Y-73750000D01*
X38750000Y-75250000D01*
X38749039Y-75259755D01*
X38746194Y-75269134D01*
X38741573Y-75277779D01*
X38735355Y-75285355D01*
X38727779Y-75291573D01*
X38719134Y-75296194D01*
X38709755Y-75299039D01*
X38700000Y-75300000D01*
X38200000Y-75300000D01*
X38193889Y-75299398D01*
X38175466Y-75299398D01*
X38170565Y-75299157D01*
X38121734Y-75294347D01*
X38116881Y-75293627D01*
X38068756Y-75284055D01*
X38063995Y-75282863D01*
X38017040Y-75268619D01*
X38012421Y-75266966D01*
X37967088Y-75248189D01*
X37962651Y-75246091D01*
X37919378Y-75222960D01*
X37915171Y-75220438D01*
X37874372Y-75193178D01*
X37870430Y-75190254D01*
X37832501Y-75159126D01*
X37828866Y-75155831D01*
X37794169Y-75121134D01*
X37790874Y-75117499D01*
X37759746Y-75079570D01*
X37756822Y-75075628D01*
X37729562Y-75034829D01*
X37727040Y-75030622D01*
X37703909Y-74987349D01*
X37701811Y-74982912D01*
X37683034Y-74937579D01*
X37681381Y-74932960D01*
X37667137Y-74886005D01*
X37665945Y-74881244D01*
X37656373Y-74833119D01*
X37655653Y-74828266D01*
X37650843Y-74779435D01*
X37650602Y-74774534D01*
X37650602Y-74756111D01*
X37650000Y-74750000D01*
X37650000Y-74250000D01*
X37650602Y-74243889D01*
X37650602Y-74225466D01*
X37650843Y-74220565D01*
X37655653Y-74171734D01*
X37656373Y-74166881D01*
X37665945Y-74118756D01*
X37667137Y-74113995D01*
X37681381Y-74067040D01*
X37683034Y-74062421D01*
X37701811Y-74017088D01*
X37703909Y-74012651D01*
X37727040Y-73969378D01*
X37729562Y-73965171D01*
X37756822Y-73924372D01*
X37759746Y-73920430D01*
X37790874Y-73882501D01*
X37794169Y-73878866D01*
X37828866Y-73844169D01*
X37832501Y-73840874D01*
X37870430Y-73809746D01*
X37874372Y-73806822D01*
X37915171Y-73779562D01*
X37919378Y-73777040D01*
X37962651Y-73753909D01*
X37967088Y-73751811D01*
X38012421Y-73733034D01*
X38017040Y-73731381D01*
X38063995Y-73717137D01*
X38068756Y-73715945D01*
X38116881Y-73706373D01*
X38121734Y-73705653D01*
X38170565Y-73700843D01*
X38175466Y-73700602D01*
X38193889Y-73700602D01*
X38200000Y-73700000D01*
X38700000Y-73700000D01*
X38709755Y-73700961D01*
G37*
%TD*%
%TO.C,JP5*%
G36*
X38709755Y-76200961D02*
G01*
X38719134Y-76203806D01*
X38727779Y-76208427D01*
X38735355Y-76214645D01*
X38741573Y-76222221D01*
X38746194Y-76230866D01*
X38749039Y-76240245D01*
X38750000Y-76250000D01*
X38750000Y-77750000D01*
X38749039Y-77759755D01*
X38746194Y-77769134D01*
X38741573Y-77777779D01*
X38735355Y-77785355D01*
X38727779Y-77791573D01*
X38719134Y-77796194D01*
X38709755Y-77799039D01*
X38700000Y-77800000D01*
X38200000Y-77800000D01*
X38193889Y-77799398D01*
X38175466Y-77799398D01*
X38170565Y-77799157D01*
X38121734Y-77794347D01*
X38116881Y-77793627D01*
X38068756Y-77784055D01*
X38063995Y-77782863D01*
X38017040Y-77768619D01*
X38012421Y-77766966D01*
X37967088Y-77748189D01*
X37962651Y-77746091D01*
X37919378Y-77722960D01*
X37915171Y-77720438D01*
X37874372Y-77693178D01*
X37870430Y-77690254D01*
X37832501Y-77659126D01*
X37828866Y-77655831D01*
X37794169Y-77621134D01*
X37790874Y-77617499D01*
X37759746Y-77579570D01*
X37756822Y-77575628D01*
X37729562Y-77534829D01*
X37727040Y-77530622D01*
X37703909Y-77487349D01*
X37701811Y-77482912D01*
X37683034Y-77437579D01*
X37681381Y-77432960D01*
X37667137Y-77386005D01*
X37665945Y-77381244D01*
X37656373Y-77333119D01*
X37655653Y-77328266D01*
X37650843Y-77279435D01*
X37650602Y-77274534D01*
X37650602Y-77256111D01*
X37650000Y-77250000D01*
X37650000Y-76750000D01*
X37650602Y-76743889D01*
X37650602Y-76725466D01*
X37650843Y-76720565D01*
X37655653Y-76671734D01*
X37656373Y-76666881D01*
X37665945Y-76618756D01*
X37667137Y-76613995D01*
X37681381Y-76567040D01*
X37683034Y-76562421D01*
X37701811Y-76517088D01*
X37703909Y-76512651D01*
X37727040Y-76469378D01*
X37729562Y-76465171D01*
X37756822Y-76424372D01*
X37759746Y-76420430D01*
X37790874Y-76382501D01*
X37794169Y-76378866D01*
X37828866Y-76344169D01*
X37832501Y-76340874D01*
X37870430Y-76309746D01*
X37874372Y-76306822D01*
X37915171Y-76279562D01*
X37919378Y-76277040D01*
X37962651Y-76253909D01*
X37967088Y-76251811D01*
X38012421Y-76233034D01*
X38017040Y-76231381D01*
X38063995Y-76217137D01*
X38068756Y-76215945D01*
X38116881Y-76206373D01*
X38121734Y-76205653D01*
X38170565Y-76200843D01*
X38175466Y-76200602D01*
X38193889Y-76200602D01*
X38200000Y-76200000D01*
X38700000Y-76200000D01*
X38709755Y-76200961D01*
G37*
G36*
X39506111Y-76200602D02*
G01*
X39524534Y-76200602D01*
X39529435Y-76200843D01*
X39578266Y-76205653D01*
X39583119Y-76206373D01*
X39631244Y-76215945D01*
X39636005Y-76217137D01*
X39682960Y-76231381D01*
X39687579Y-76233034D01*
X39732912Y-76251811D01*
X39737349Y-76253909D01*
X39780622Y-76277040D01*
X39784829Y-76279562D01*
X39825628Y-76306822D01*
X39829570Y-76309746D01*
X39867499Y-76340874D01*
X39871134Y-76344169D01*
X39905831Y-76378866D01*
X39909126Y-76382501D01*
X39940254Y-76420430D01*
X39943178Y-76424372D01*
X39970438Y-76465171D01*
X39972960Y-76469378D01*
X39996091Y-76512651D01*
X39998189Y-76517088D01*
X40016966Y-76562421D01*
X40018619Y-76567040D01*
X40032863Y-76613995D01*
X40034055Y-76618756D01*
X40043627Y-76666881D01*
X40044347Y-76671734D01*
X40049157Y-76720565D01*
X40049398Y-76725466D01*
X40049398Y-76743889D01*
X40050000Y-76750000D01*
X40050000Y-77250000D01*
X40049398Y-77256111D01*
X40049398Y-77274534D01*
X40049157Y-77279435D01*
X40044347Y-77328266D01*
X40043627Y-77333119D01*
X40034055Y-77381244D01*
X40032863Y-77386005D01*
X40018619Y-77432960D01*
X40016966Y-77437579D01*
X39998189Y-77482912D01*
X39996091Y-77487349D01*
X39972960Y-77530622D01*
X39970438Y-77534829D01*
X39943178Y-77575628D01*
X39940254Y-77579570D01*
X39909126Y-77617499D01*
X39905831Y-77621134D01*
X39871134Y-77655831D01*
X39867499Y-77659126D01*
X39829570Y-77690254D01*
X39825628Y-77693178D01*
X39784829Y-77720438D01*
X39780622Y-77722960D01*
X39737349Y-77746091D01*
X39732912Y-77748189D01*
X39687579Y-77766966D01*
X39682960Y-77768619D01*
X39636005Y-77782863D01*
X39631244Y-77784055D01*
X39583119Y-77793627D01*
X39578266Y-77794347D01*
X39529435Y-77799157D01*
X39524534Y-77799398D01*
X39506111Y-77799398D01*
X39500000Y-77800000D01*
X39000000Y-77800000D01*
X38990245Y-77799039D01*
X38980866Y-77796194D01*
X38972221Y-77791573D01*
X38964645Y-77785355D01*
X38958427Y-77777779D01*
X38953806Y-77769134D01*
X38950961Y-77759755D01*
X38950000Y-77750000D01*
X38950000Y-76250000D01*
X38950961Y-76240245D01*
X38953806Y-76230866D01*
X38958427Y-76222221D01*
X38964645Y-76214645D01*
X38972221Y-76208427D01*
X38980866Y-76203806D01*
X38990245Y-76200961D01*
X39000000Y-76200000D01*
X39500000Y-76200000D01*
X39506111Y-76200602D01*
G37*
%TD*%
%TO.C,JP6*%
G36*
X39506111Y-78700602D02*
G01*
X39524534Y-78700602D01*
X39529435Y-78700843D01*
X39578266Y-78705653D01*
X39583119Y-78706373D01*
X39631244Y-78715945D01*
X39636005Y-78717137D01*
X39682960Y-78731381D01*
X39687579Y-78733034D01*
X39732912Y-78751811D01*
X39737349Y-78753909D01*
X39780622Y-78777040D01*
X39784829Y-78779562D01*
X39825628Y-78806822D01*
X39829570Y-78809746D01*
X39867499Y-78840874D01*
X39871134Y-78844169D01*
X39905831Y-78878866D01*
X39909126Y-78882501D01*
X39940254Y-78920430D01*
X39943178Y-78924372D01*
X39970438Y-78965171D01*
X39972960Y-78969378D01*
X39996091Y-79012651D01*
X39998189Y-79017088D01*
X40016966Y-79062421D01*
X40018619Y-79067040D01*
X40032863Y-79113995D01*
X40034055Y-79118756D01*
X40043627Y-79166881D01*
X40044347Y-79171734D01*
X40049157Y-79220565D01*
X40049398Y-79225466D01*
X40049398Y-79243889D01*
X40050000Y-79250000D01*
X40050000Y-79750000D01*
X40049398Y-79756111D01*
X40049398Y-79774534D01*
X40049157Y-79779435D01*
X40044347Y-79828266D01*
X40043627Y-79833119D01*
X40034055Y-79881244D01*
X40032863Y-79886005D01*
X40018619Y-79932960D01*
X40016966Y-79937579D01*
X39998189Y-79982912D01*
X39996091Y-79987349D01*
X39972960Y-80030622D01*
X39970438Y-80034829D01*
X39943178Y-80075628D01*
X39940254Y-80079570D01*
X39909126Y-80117499D01*
X39905831Y-80121134D01*
X39871134Y-80155831D01*
X39867499Y-80159126D01*
X39829570Y-80190254D01*
X39825628Y-80193178D01*
X39784829Y-80220438D01*
X39780622Y-80222960D01*
X39737349Y-80246091D01*
X39732912Y-80248189D01*
X39687579Y-80266966D01*
X39682960Y-80268619D01*
X39636005Y-80282863D01*
X39631244Y-80284055D01*
X39583119Y-80293627D01*
X39578266Y-80294347D01*
X39529435Y-80299157D01*
X39524534Y-80299398D01*
X39506111Y-80299398D01*
X39500000Y-80300000D01*
X39000000Y-80300000D01*
X38990245Y-80299039D01*
X38980866Y-80296194D01*
X38972221Y-80291573D01*
X38964645Y-80285355D01*
X38958427Y-80277779D01*
X38953806Y-80269134D01*
X38950961Y-80259755D01*
X38950000Y-80250000D01*
X38950000Y-78750000D01*
X38950961Y-78740245D01*
X38953806Y-78730866D01*
X38958427Y-78722221D01*
X38964645Y-78714645D01*
X38972221Y-78708427D01*
X38980866Y-78703806D01*
X38990245Y-78700961D01*
X39000000Y-78700000D01*
X39500000Y-78700000D01*
X39506111Y-78700602D01*
G37*
G36*
X38709755Y-78700961D02*
G01*
X38719134Y-78703806D01*
X38727779Y-78708427D01*
X38735355Y-78714645D01*
X38741573Y-78722221D01*
X38746194Y-78730866D01*
X38749039Y-78740245D01*
X38750000Y-78750000D01*
X38750000Y-80250000D01*
X38749039Y-80259755D01*
X38746194Y-80269134D01*
X38741573Y-80277779D01*
X38735355Y-80285355D01*
X38727779Y-80291573D01*
X38719134Y-80296194D01*
X38709755Y-80299039D01*
X38700000Y-80300000D01*
X38200000Y-80300000D01*
X38193889Y-80299398D01*
X38175466Y-80299398D01*
X38170565Y-80299157D01*
X38121734Y-80294347D01*
X38116881Y-80293627D01*
X38068756Y-80284055D01*
X38063995Y-80282863D01*
X38017040Y-80268619D01*
X38012421Y-80266966D01*
X37967088Y-80248189D01*
X37962651Y-80246091D01*
X37919378Y-80222960D01*
X37915171Y-80220438D01*
X37874372Y-80193178D01*
X37870430Y-80190254D01*
X37832501Y-80159126D01*
X37828866Y-80155831D01*
X37794169Y-80121134D01*
X37790874Y-80117499D01*
X37759746Y-80079570D01*
X37756822Y-80075628D01*
X37729562Y-80034829D01*
X37727040Y-80030622D01*
X37703909Y-79987349D01*
X37701811Y-79982912D01*
X37683034Y-79937579D01*
X37681381Y-79932960D01*
X37667137Y-79886005D01*
X37665945Y-79881244D01*
X37656373Y-79833119D01*
X37655653Y-79828266D01*
X37650843Y-79779435D01*
X37650602Y-79774534D01*
X37650602Y-79756111D01*
X37650000Y-79750000D01*
X37650000Y-79250000D01*
X37650602Y-79243889D01*
X37650602Y-79225466D01*
X37650843Y-79220565D01*
X37655653Y-79171734D01*
X37656373Y-79166881D01*
X37665945Y-79118756D01*
X37667137Y-79113995D01*
X37681381Y-79067040D01*
X37683034Y-79062421D01*
X37701811Y-79017088D01*
X37703909Y-79012651D01*
X37727040Y-78969378D01*
X37729562Y-78965171D01*
X37756822Y-78924372D01*
X37759746Y-78920430D01*
X37790874Y-78882501D01*
X37794169Y-78878866D01*
X37828866Y-78844169D01*
X37832501Y-78840874D01*
X37870430Y-78809746D01*
X37874372Y-78806822D01*
X37915171Y-78779562D01*
X37919378Y-78777040D01*
X37962651Y-78753909D01*
X37967088Y-78751811D01*
X38012421Y-78733034D01*
X38017040Y-78731381D01*
X38063995Y-78717137D01*
X38068756Y-78715945D01*
X38116881Y-78706373D01*
X38121734Y-78705653D01*
X38170565Y-78700843D01*
X38175466Y-78700602D01*
X38193889Y-78700602D01*
X38200000Y-78700000D01*
X38700000Y-78700000D01*
X38709755Y-78700961D01*
G37*
%TD*%
D18*
%TO.C,H1*%
X90666726Y-56333274D03*
X89500000Y-55850000D03*
X88333274Y-56333274D03*
X87850000Y-57500000D03*
X88333274Y-58666726D03*
X89500000Y-59150000D03*
X90666726Y-58666726D03*
X91150000Y-57500000D03*
D19*
X89500000Y-57500000D03*
%TD*%
%TO.C,H2*%
X89500000Y-95500000D03*
D18*
X91150000Y-95500000D03*
X90666726Y-96666726D03*
X89500000Y-97150000D03*
X88333274Y-96666726D03*
X87850000Y-95500000D03*
X88333274Y-94333274D03*
X89500000Y-93850000D03*
X90666726Y-94333274D03*
%TD*%
%TO.C,H3*%
X52666726Y-56333274D03*
X51500000Y-55850000D03*
X50333274Y-56333274D03*
X49850000Y-57500000D03*
X50333274Y-58666726D03*
X51500000Y-59150000D03*
X52666726Y-58666726D03*
X53150000Y-57500000D03*
D19*
X51500000Y-57500000D03*
%TD*%
%TO.C,H4*%
X51500000Y-95500000D03*
D18*
X53150000Y-95500000D03*
X52666726Y-96666726D03*
X51500000Y-97150000D03*
X50333274Y-96666726D03*
X49850000Y-95500000D03*
X50333274Y-94333274D03*
X51500000Y-93850000D03*
X52666726Y-94333274D03*
%TD*%
D10*
%TO.C,J14*%
X65379600Y-38912800D03*
D11*
X67919600Y-38912800D03*
%TD*%
M02*
