M48
METRIC,TZ
T1C0.400
T2C0.800
T3C1.000
T4C2.200
%
G90
G05
T1
X37100Y-67500
X38200Y-85400
X40300Y-81800
X41650Y-85350
X45800Y-65500
X49300Y-65500
X54400Y-80000
X55200Y-92800
X56600Y-98300
X57400Y-75100
X59000Y-78000
X59385Y-54813
X60000Y-98300
X60000Y-101100
X62900Y-76500
X63900Y-69600
X64000Y-80900
X64800Y-86200
X66442Y-72008
X67462Y-47803
X70059Y-73300
X70600Y-77100
X71900Y-73400
X72300Y-78000
X72700Y-82800
X73100Y-84400
X73450Y-77100
X73700Y-67000
X73762Y-50902
X74400Y-81100
X74800Y-70500
X75387Y-51003
X76100Y-79400
X76700Y-108000
X76800Y-80500
X77900Y-83500
X81200Y-80200
X81400Y-97100
X81585Y-45161
X85000Y-64100
X85900Y-66600
X87500Y-62300
X91700Y-76600
X91900Y-87500
X95100Y-76600
X95100Y-87500
X97200Y-69600
X101100Y-65800
X102200Y-82700
X102650Y-86500
X103800Y-68400
X107100Y-82550
X87850Y-95500
X88333Y-94333
X88333Y-96667
X89500Y-93850
X89500Y-97150
X90667Y-94333
X90667Y-96667
X91150Y-95500
X87850Y-57500
X88333Y-56333
X88333Y-58667
X89500Y-55850
X89500Y-59150
X90667Y-56333
X90667Y-58667
X91150Y-57500
X49850Y-57500
X50333Y-56333
X50333Y-58667
X51500Y-55850
X51500Y-59150
X52667Y-56333
X52667Y-58667
X53150Y-57500
X49850Y-95500
X50333Y-94333
X50333Y-96667
X51500Y-93850
X51500Y-97150
X52667Y-94333
X52667Y-96667
X53150Y-95500
T2
X35000Y-94000
X37540Y-94000
X40080Y-94000
X42620Y-94000
T3
X86000Y-104380
X86000Y-106920
X86000Y-109460
X86000Y-112000
X89000Y-68220
X89000Y-70760
X89000Y-73300
X89000Y-75840
X89000Y-78380
X89000Y-80920
X89000Y-83460
X89000Y-86000
X85305Y-45000
X85305Y-47540
X85305Y-50080
X98380Y-57000
X100920Y-57000
X103460Y-57000
X106000Y-57000
X65380Y-38913
X67920Y-38913
X62840Y-58000
X65380Y-58000
X67920Y-58000
X70460Y-58000
X73000Y-58000
X75540Y-58000
X78080Y-58000
X80620Y-58000
X55000Y-108000
X62600Y-108000
X62300Y-95000
X64840Y-95000
X67380Y-95000
X69920Y-95000
X72460Y-95000
X75000Y-95000
X77540Y-95000
X34000Y-69380
X34000Y-71920
X34000Y-74460
X34000Y-77000
X34000Y-79540
X34000Y-82080
X85305Y-40000
X87845Y-40000
X90385Y-40000
X53000Y-65840
X53000Y-68380
X53000Y-70920
X53000Y-73460
X53000Y-76000
X52000Y-84000
X52000Y-86540
X52000Y-89080
X54540Y-84000
X54540Y-86540
X54540Y-89080
X90305Y-45000
X90305Y-47540
X90305Y-50080
T4
X89500Y-95500
X89500Y-57500
X51500Y-57500
X51500Y-95500
T3
G00X51300Y-43000
M15
G01X51300Y-45000
M16
G05
G00X57000Y-41000
M15
G01X55000Y-41000
M16
G05
G00X57000Y-47000
M15
G01X55000Y-47000
M16
G05
T0
M30
